<svg width="345" height="468" viewBox="0 0 345 468" fill="none" xmlns="http://www.w3.org/2000/svg">
<path fill-rule="evenodd" clip-rule="evenodd" d="M2.17987 10.9202C0 15.1984 0 20.7989 0 32V468H10C10 463.029 14.0294 459 19 459C23.9706 459 28 463.029 28 468H36C36 463.029 40.0294 459 45 459C49.9706 459 54 463.029 54 468H62C62 463.029 66.0294 459 71 459C75.9706 459 80 463.029 80 468H88C88 463.029 92.0294 459 97 459C101.971 459 106 463.029 106 468H114C114 463.029 118.029 459 123 459C127.971 459 132 463.029 132 468H140C140 463.029 144.029 459 149 459C153.971 459 158 463.029 158 468H166C166 463.029 170.029 459 175 459C179.971 459 184 463.029 184 468H192C192 463.029 196.029 459 201 459C205.971 459 210 463.029 210 468H218C218 463.029 222.029 459 227 459C231.971 459 236 463.029 236 468H244C244 463.029 248.029 459 253 459C257.971 459 262 463.029 262 468H270C270 463.029 274.029 459 279 459C283.971 459 288 463.029 288 468H296C296 463.029 300.029 459 305 459C309.971 459 314 463.029 314 468H322C322 463.029 326.029 459 331 459C335.971 459 340 463.029 340 468H345V32C345 20.799 345 15.1984 342.82 10.9202C340.903 7.15695 337.843 4.09734 334.08 2.17987C329.802 0 324.201 0 313 0H32C20.799 0 15.1984 0 10.9202 2.17987C7.15695 4.09734 4.09734 7.15695 2.17987 10.9202Z" fill="white"/>
</svg>
