<svg width="50" height="86" viewBox="0 0 50 86" fill="none" xmlns="http://www.w3.org/2000/svg">
<path d="M29.0833 0.0830082C31.1437 0.0823562 33.1281 0.860501 34.6389 2.26145C36.1497 3.66241 37.0751 5.58262 37.2296 7.63718L37.25 8.24967V10.2913C37.25 15.6691 38.8057 20.9243 41.7172 25.4201L42.4113 26.4409L42.6155 26.7349C46.8071 32.622 49.1911 39.6036 49.4755 46.8249L49.5 48.2704V73.583C49.5002 76.7076 48.3063 79.7142 46.1628 81.9876C44.0192 84.2609 41.0879 85.6293 37.9687 85.8126L37.25 85.833H12.75C9.62539 85.8332 6.61881 84.6394 4.34543 82.4958C2.07206 80.3522 0.703728 77.4209 0.520417 74.3017L0.5 73.583V48.2663C0.501329 41.0395 2.61001 33.9699 6.56783 27.9232L7.3845 26.7308L7.58867 26.4491C10.9474 21.7309 12.7516 16.0829 12.75 10.2913V8.24967C12.7493 6.18932 13.5275 4.20486 14.9284 2.6941C16.3294 1.18335 18.2496 0.257951 20.3042 0.103425L20.9167 0.0830082H29.0833ZM30.5615 20.4997H19.4385C18.4431 23.8753 16.9573 27.0864 15.0285 30.0302L14.2363 31.1898L14.0322 31.4716C10.7976 36.0196 8.94442 41.4047 8.69525 46.9801L8.69525 76.4997C11.0512 74.835 37.1156 76.4535 40 76.4997C42.253 76.4528 38.0818 75.2359 40.0972 76.244C42.1127 77.2521 38.6862 74.6688 40 76.4997C39.459 77.2529 40.808 82.4958 40 76.4997C40.9111 75.2326 40.0428 48.4143 41.3211 47.5191L41.3333 48.2663C41.3333 42.6722 39.7163 37.2128 36.6906 32.5373L35.7596 31.1817C33.4462 27.9341 31.6895 24.3241 30.5615 20.4997Z" fill="#093030"/>
</svg>
