<svg width="141" height="258" viewBox="0 0 141 258" fill="none" xmlns="http://www.w3.org/2000/svg">
<path d="M44.4167 44.2083H96.5834V18.1249C96.5834 14.6661 95.2094 11.3489 92.7636 8.90307C90.3178 6.45728 87.0006 5.08325 83.5417 5.08325H57.4584C53.9995 5.08325 50.6824 6.45728 48.2366 8.90307C45.7908 11.3489 44.4167 14.6661 44.4167 18.1249V44.2083Z" stroke="#093030" stroke-width="10" stroke-linecap="round" stroke-linejoin="round"/>
<path d="M96.5834 24.6458C96.5834 45.8515 103.196 66.5356 115.494 83.8158L116.146 84.7287C128.866 102.608 135.704 124.004 135.708 145.946V226.792C135.708 233.709 132.96 240.344 128.069 245.235C123.177 250.127 116.543 252.875 109.625 252.875H31.3751C24.4574 252.875 17.823 250.127 12.9314 245.235C8.0398 240.344 5.29175 233.709 5.29175 226.792V145.933C5.29175 123.997 12.1256 102.609 24.8542 84.7287L25.5063 83.8158C37.8092 66.5387 44.4194 45.8556 44.4167 24.6458" stroke="#093030" stroke-width="10" stroke-linecap="round" stroke-linejoin="round"/>
</svg>
