<svg width="19" height="19" viewBox="0 0 19 19" fill="none" xmlns="http://www.w3.org/2000/svg">
<path d="M13.4375 3.375V1.625M5.5625 3.375V1.625M1.84375 6H17.1562M1.625 7.7885C1.625 5.93787 1.625 5.01213 2.0065 4.30513C2.35146 3.67452 2.88675 3.16894 3.536 2.8605C4.285 2.5 5.265 2.5 7.225 2.5H11.775C13.735 2.5 14.715 2.5 15.464 2.8605C16.1229 3.17725 16.6575 3.683 16.9935 4.30425C17.375 5.013 17.375 5.93875 17.375 7.78938V12.0874C17.375 13.938 17.375 14.8637 16.9935 15.5707C16.6485 16.2014 16.1133 16.7069 15.464 17.0154C14.715 17.375 13.735 17.375 11.775 17.375H7.225C5.265 17.375 4.285 17.375 3.536 17.0145C2.88688 16.7063 2.35161 16.201 2.0065 15.5707C1.625 14.862 1.625 13.9362 1.625 12.0856V7.7885Z" stroke="black" stroke-width="1.5" stroke-linecap="round" stroke-linejoin="round"/>
</svg>
