<svg width="52" height="40" viewBox="0 0 52 40" fill="none" xmlns="http://www.w3.org/2000/svg">
<path d="M16.7355 38.7292H16.7405H16.7406H16.7406H16.7406H16.7407H16.7407H16.7407H16.7408H16.7408H16.7408H16.7409H16.7409H16.741H16.741H16.741H16.7411H16.7411H16.7411H16.7412H16.7412H16.7412H16.7413H16.7413H16.7413H16.7414H16.7414H16.7415H16.7415H16.7415H16.7416H16.7416H16.7416H16.7417H16.7417H16.7417H16.7418H16.7418H16.7419H16.7419H16.7419H16.742H16.742H16.742H16.7421H16.7421H16.7421H16.7422H16.7422H16.7423H16.7423H16.7423H16.7424H16.7424H16.7424H16.7425H16.7425H16.7425H16.7426H16.7426H16.7427H16.7427H16.7427H16.7428H16.7428H16.7428H16.7429H16.7429H16.7429H16.743H16.743H16.743H16.7431H16.7431H16.7432H16.7432H16.7432H16.7433H16.7433H16.7433H16.7434H16.7434H16.7434H16.7435H16.7435H16.7436H16.7436H16.7436H16.7437H16.7437H16.7437H16.7438H16.7438H16.7438H16.7439H16.7439H16.744H16.744H16.744H16.7441H16.7441H16.7441H16.7442H16.7442H16.7442H16.7443H16.7443H16.7444H16.7444H16.7444H16.7445H16.7445H16.7445H16.7446H16.7446H16.7446H16.7447H16.7447H16.7448H16.7448H16.7448H16.7449H16.7449H16.7449H16.745H16.745H16.745H16.7451H16.7451H16.7452H16.7452H16.7452H16.7453H16.7453H16.7453H16.7454H16.7454H16.7454H16.7455H16.7455H16.7455H16.7456H16.7456H16.7457H16.7457H16.7457H16.7458H16.7458H16.7458H16.7459H16.7459H16.7459H16.746H16.746H16.7461H16.7461H16.7461H16.7462H16.7462H16.7462H16.7463H16.7463H16.7463H16.7464H16.7464H16.7465H16.7465H16.7465H16.7466H16.7466H16.7466H16.7467H16.7467H16.7467H16.7468H16.7468H16.7469H16.7469H16.7469H16.747H16.747H16.747H16.7471H16.7471H16.7471H16.7472H16.7472H16.7473H16.7473H16.7473H16.7474H16.7474H16.7474H16.7475H16.7475H16.7475H16.7476H16.7476H16.7477H16.7477H16.7477H16.7478H16.7478H16.7478H16.7479H16.7479H16.7479H16.748H16.748H16.748H16.7481H16.7481H16.7482H16.7482H16.7482H16.7483H16.7483H16.7483H16.7484H16.7484H16.7484H16.7485H16.7485H16.7486H16.7486H16.7486H16.7487H16.7487H16.7487H16.7488H16.7488H16.7488H16.7489H16.7489H16.749H16.749H16.749H16.7491H16.7491H16.7491H16.7492H16.7492H16.7492H16.7493H16.7493H16.7494H16.7494H16.7494H16.7495H16.7495H16.7495H16.7496H16.7496H16.7496H16.7497H16.7497H16.7497H16.7498C17.6271 38.7292 18.4714 38.3814 19.0921 37.757C19.0926 37.7565 19.0931 37.7561 19.0936 37.7556L49.9244 6.92475C51.2183 5.63081 51.2183 3.53295 49.9244 2.23901C48.6304 0.945069 46.5327 0.945069 45.2387 2.23901L16.7646 30.7132L6.77607 20.5663C6.77591 20.5661 6.77575 20.566 6.77559 20.5658C5.49236 19.261 3.39189 19.2502 2.0905 20.5296L2.0905 20.5296L2.08927 20.5308C0.787838 21.8146 0.768529 23.9122 2.05494 25.2163L14.3877 37.7402L14.3881 37.7407C15.0103 38.3717 15.8539 38.7248 16.7355 38.7292Z" fill="#2AC116" stroke="#2AC116" stroke-width="2"/>
</svg>
