<svg width="55" height="55" viewBox="0 0 55 55" fill="none" xmlns="http://www.w3.org/2000/svg">
<path d="M15.2812 20.6571C15.4342 19.654 16.4339 18.7019 17.845 18.7019C19.2562 18.7019 20.2559 19.654 20.4089 20.6571C20.4349 20.8842 20.5063 21.1037 20.6191 21.3025C20.7318 21.5013 20.8834 21.6754 21.0649 21.8143C21.2464 21.9531 21.4541 22.054 21.6754 22.1108C21.8968 22.1676 22.1273 22.1792 22.3533 22.1449C22.5792 22.1106 22.796 22.0311 22.9905 21.9112C23.185 21.7912 23.3534 21.6333 23.4855 21.4468C23.6176 21.2603 23.7107 21.0491 23.7593 20.8257C23.808 20.6024 23.8111 20.3716 23.7685 20.1471C23.3366 17.3078 20.7557 15.3016 17.845 15.3016C14.9343 15.3016 12.3535 17.3078 11.9216 20.1471C11.879 20.3716 11.8821 20.6024 11.9308 20.8257C11.9794 21.0491 12.0725 21.2603 12.2046 21.4468C12.3367 21.6333 12.5051 21.7912 12.6996 21.9112C12.8941 22.0311 13.1109 22.1106 13.3368 22.1449C13.5628 22.1792 13.7933 22.1676 14.0147 22.1108C14.236 22.054 14.4437 21.9531 14.6252 21.8143C14.8067 21.6754 14.9583 21.5013 15.071 21.3025C15.1837 21.1037 15.2552 20.8842 15.2812 20.6571ZM36.547 18.7019C35.1358 18.7019 34.1395 19.654 33.9831 20.6571C33.9011 21.0895 33.6546 21.4732 33.2955 21.7276C32.9364 21.982 32.4926 22.0872 32.0575 22.0211C31.6225 21.9551 31.2299 21.7229 30.9625 21.3734C30.6951 21.0239 30.5736 20.5843 30.6236 20.1471C31.0554 17.3078 33.6363 15.3016 36.547 15.3016C39.4577 15.3016 42.0386 17.3078 42.4704 20.1471C42.5204 20.5843 42.3989 21.0239 42.1315 21.3734C41.864 21.7229 41.4715 21.9551 41.0364 22.0211C40.6013 22.0872 40.1576 21.982 39.7985 21.7276C39.4394 21.4732 39.1929 21.0895 39.1108 20.6571C38.9544 19.654 37.9581 18.7019 36.547 18.7019ZM11.8842 27.2028C11.6471 27.2031 11.4126 27.253 11.1959 27.3493C10.9792 27.4456 10.785 27.5861 10.6258 27.762C10.4667 27.9378 10.3461 28.1449 10.2717 28.3701C10.1974 28.5953 10.171 28.8336 10.1943 29.0696C11.0035 37.3767 17.5254 44.2046 27.1858 44.2046C36.8462 44.2046 43.3715 37.3767 44.1808 29.0696C44.204 28.8333 44.1776 28.5948 44.103 28.3693C44.0285 28.1439 43.9076 27.9366 43.7481 27.7607C43.5885 27.5848 43.3939 27.4443 43.1768 27.3482C42.9597 27.2522 42.7248 27.2026 42.4874 27.2028H11.8842ZM27.1858 40.8042C20.1097 40.8042 15.2302 36.3736 13.8836 30.6032H40.4914C39.1415 36.3736 34.2653 40.8042 27.1858 40.8042ZM27.2028 0C19.9882 0 13.069 2.866 7.96752 7.96752C2.866 13.069 0 19.9882 0 27.2028C0 34.4174 2.866 41.3366 7.96752 46.4381C13.069 51.5396 19.9882 54.4056 27.2028 54.4056C34.4174 54.4056 41.3366 51.5396 46.4381 46.4381C51.5396 41.3366 54.4056 34.4174 54.4056 27.2028C54.4056 19.9882 51.5396 13.069 46.4381 7.96752C41.3366 2.866 34.4174 0 27.2028 0ZM3.40035 27.2028C3.40035 24.077 4.01602 20.9819 5.21221 18.094C6.40839 15.2062 8.16167 12.5822 10.3719 10.3719C12.5822 8.16167 15.2062 6.40839 18.094 5.21221C20.9819 4.01602 24.077 3.40035 27.2028 3.40035C30.3286 3.40035 33.4238 4.01602 36.3116 5.21221C39.1995 6.40839 41.8234 8.16167 44.0337 10.3719C46.244 12.5822 47.9972 15.2062 49.1934 18.094C50.3896 20.9819 51.0053 24.077 51.0053 27.2028C51.0053 33.5156 48.4975 39.5699 44.0337 44.0337C39.5699 48.4975 33.5156 51.0053 27.2028 51.0053C20.89 51.0053 14.8358 48.4975 10.3719 44.0337C5.9081 39.5699 3.40035 33.5156 3.40035 27.2028Z" fill="white"/>
</svg>
