<svg width="53" height="16" viewBox="0 0 53 16" fill="none" xmlns="http://www.w3.org/2000/svg">
<g clip-path="url(#clip0_1196_2653)">
<path d="M0.0621246 10.995C0.0621246 10.2003 0.0487289 9.53494 0.00732422 8.93968H1.4571L1.5259 9.96102H1.56609C1.89428 9.42194 2.49587 8.78313 3.61745 8.78313C4.49304 8.78313 5.17621 9.29443 5.46361 10.0595H5.49162C5.72422 9.67696 5.997 9.39291 6.31119 9.19533C6.68079 8.92516 7.10579 8.78313 7.65197 8.78313C8.76015 8.78313 9.88052 9.56271 9.88052 11.7758V15.8435H8.23955V12.0296C8.23955 10.882 7.85656 10.2003 7.04978 10.2003C6.47559 10.2003 6.05119 10.627 5.874 11.1231C5.8247 11.3125 5.79711 11.5072 5.7918 11.7032V15.8442H4.15084V11.8446C4.15084 10.8826 3.78185 10.2009 3.00186 10.2009C2.37409 10.2009 1.9503 10.7122 1.79808 11.1932C1.73049 11.3636 1.70248 11.5631 1.70248 11.7601V15.8442H0.0621246V10.995ZM16.2745 14.1859C16.2745 14.8089 16.3019 15.4181 16.3695 15.8442H14.8515L14.7425 15.0791H14.7011C14.2907 15.6182 13.5929 15.9994 12.7332 15.9994C11.3924 15.9994 10.6404 14.9939 10.6404 13.9441C10.6404 12.1988 12.1298 11.3213 14.5927 11.3352V11.2222C14.5927 10.7677 14.4143 10.0166 13.238 10.0166C12.581 10.0166 11.8978 10.2299 11.4466 10.5266L11.1184 9.39228C11.611 9.07981 12.4726 8.7825 13.5247 8.7825C15.6589 8.7825 16.2751 10.1876 16.2751 11.6887L16.2745 14.1859ZM14.6329 12.4708C13.4425 12.4418 12.3082 12.7113 12.3082 13.7604C12.3082 14.4409 12.7332 14.7534 13.266 14.7534C13.9351 14.7534 14.4283 14.2983 14.5787 13.8027C14.6156 13.6788 14.634 13.5499 14.6335 13.4202L14.6329 12.4708ZM17.4363 10.995C17.4363 10.2003 17.4223 9.53494 17.3827 8.93968H18.858L18.9396 9.97617H18.981C19.2678 9.43646 19.993 8.78313 21.1006 8.78313C22.2636 8.78313 23.4661 9.56271 23.4661 11.7474V15.8435H21.7844V11.9456C21.7844 10.9533 21.4282 10.1996 20.5124 10.1996C19.8432 10.1996 19.3768 10.6964 19.1996 11.2216C19.1448 11.3769 19.1314 11.5902 19.1314 11.7872V15.8429H17.4357L17.4363 10.995ZM30.7594 6.16602V13.9018C30.7594 14.6107 30.7875 15.3777 30.8142 15.8442H29.3109L29.2421 14.7534H29.2141C28.8183 15.5184 28.0103 16.0001 27.0403 16.0001C25.4536 16.0001 24.1962 14.5968 24.1962 12.4715C24.1816 10.1599 25.5759 8.78376 27.1773 8.78376C28.0931 8.78376 28.7495 9.18081 29.0503 9.69338H29.0789V6.16665H30.76L30.7594 6.16602ZM29.0783 11.8175C29.0783 11.6767 29.0649 11.5063 29.0369 11.3636C28.8865 10.6844 28.3543 10.1308 27.5877 10.1308C26.5075 10.1308 25.9047 11.1238 25.9047 12.4134C25.9047 13.674 26.5069 14.5962 27.5743 14.5962C28.2569 14.5962 28.8591 14.1133 29.0229 13.3621C29.0643 13.2068 29.0789 13.0358 29.0789 12.8521L29.0783 11.8175ZM31.9492 15.8442V8.93968H33.6462V15.8442H31.9492ZM34.8348 11.1661C34.8348 10.2306 34.822 9.56334 34.7812 8.94031H36.2443L36.2979 10.2577H36.3533C36.6815 9.27991 37.4603 8.94031 38.1733 8.94031C38.3371 8.94031 38.4321 8.91127 38.5685 8.94031V10.4723C38.4071 10.4353 38.2424 10.4163 38.0771 10.4155C37.2685 10.4155 36.7217 10.9546 36.5719 11.7329C36.5388 11.9111 36.5207 12.0918 36.5177 12.2732V15.8448H34.8348V11.1661ZM39.3491 15.8442V8.93968H41.0436V15.8442H39.3491Z" fill="#0D2B5B"/>
<path d="M51.5995 1.63741C50.7598 0.644476 49.8672 1.09392 49.1578 1.45941C48.8595 1.61217 46.7058 2.8778 46.7058 2.8778C45.5258 3.38216 44.607 2.83172 44.2465 2.36839C44.212 2.32445 44.1809 2.27781 44.1534 2.22888L44.0693 2.07802C43.9273 1.82338 43.7695 1.57857 43.5968 1.34515C43.4921 1.20367 43.3786 1.06935 43.2571 0.943052C42.4497 0.0978243 41.1594 -0.493646 39.0027 0.580721C37.9816 1.19429 34.6552 3.16438 34.6552 3.16438C33.4052 3.69778 32.4492 3.04823 32.1387 2.57165C32.1247 2.5538 32.1125 2.53456 32.1022 2.5142L32.0614 2.44224L31.8507 2.08496C31.7556 1.92846 31.6536 1.77659 31.545 1.62984C31.4392 1.48926 31.3256 1.35521 31.2047 1.22837C30.4027 0.388194 29.1192 -0.202014 26.9814 0.852154C25.6887 1.61722 22.682 3.3992 22.682 3.3992L22.6808 3.40046L20.4802 4.70397L21.6189 6.15329C22.0981 6.62672 22.9986 7.40315 24.3918 6.74855C24.3918 6.74855 28.2369 4.44011 28.2521 4.43317C31.5395 2.56281 33.1616 4.34985 33.8789 5.54099C33.9039 5.57824 33.924 5.61864 33.9465 5.65462L33.9477 5.65651C33.9568 5.67103 33.9623 5.68428 33.9702 5.69817L34.0512 5.83578C34.4007 6.38496 34.9518 6.73971 35.6088 6.7233C35.9711 6.71573 36.2171 6.59327 36.5751 6.38685L40.2954 4.14974L40.3033 4.14596C43.6321 2.25287 45.2816 4.15669 45.9861 5.34783C46.0409 5.45073 46.103 5.5492 46.167 5.64073C46.5159 6.1312 46.9969 6.4525 47.6082 6.43672C48.0119 6.42851 48.4643 6.17728 48.5319 6.1312L52.992 3.46232C52.9933 3.46359 52.5378 2.74966 51.5995 1.63741Z" fill="#FDD213"/>
</g>
<defs>
<clipPath id="clip0_1196_2653">
<rect width="53" height="16" fill="white"/>
</clipPath>
</defs>
</svg>
