<svg width="48" height="15" viewBox="0 0 48 15" fill="none" xmlns="http://www.w3.org/2000/svg">
<path d="M26.0479 7.15228C27.476 6.45829 28.3148 5.08247 28.3148 3.81126C28.3148 3.13035 28.0654 2.48774 27.5414 2.01605C27.0174 1.54437 26.2048 1.24268 25.1045 1.24268C22.9432 1.24268 21.6981 1.24268 20.9911 1.24268C20.6371 1.24268 20.4278 1.24268 20.2971 1.24268C20.1663 1.24268 20.1271 1.24268 20.1271 1.24268H20.1009L18.2142 4.94984H18.2926H19.0922L16.8916 13.57H16.957C16.957 13.57 17.0616 13.57 17.2979 13.57C17.9788 13.57 19.7348 13.57 22.7218 13.57C22.7349 13.57 22.748 13.57 22.7741 13.57C24.1892 13.57 25.3418 13.0198 26.1413 12.2203C26.9408 11.4208 27.3864 10.3859 27.3864 9.42944C27.3705 8.51502 26.952 7.65011 26.0479 7.15228ZM23.5849 6.24814C23.1916 6.24814 22.3538 6.24814 22.3538 6.24814L22.7209 4.55848C22.7209 4.55848 23.5858 4.55848 24.0967 4.55848C25.4193 4.87231 24.2788 6.31352 23.5849 6.24814ZM21.8158 8.44871C21.8158 8.44871 22.7199 8.44871 23.1916 8.44871C24.8159 8.77655 23.8072 10.4662 22.7199 10.4008C22.3529 10.4008 21.2787 10.4008 21.2787 10.4008L21.8158 8.44871Z" fill="#005FAF"/>
<path d="M22.3657 6.24812L22.418 6.2612L22.7851 4.57154L22.7327 4.55846V4.61077C22.7327 4.61077 22.955 4.61077 23.2306 4.61077C23.5061 4.61077 23.8461 4.61077 24.1086 4.61077V4.55846L24.0955 4.61077C24.3047 4.66307 24.4495 4.74153 24.541 4.84614C24.6326 4.93768 24.6718 5.05536 24.6718 5.17399C24.6718 5.39628 24.528 5.67182 24.3178 5.86797C24.1217 6.07719 23.8592 6.20889 23.65 6.20889C23.6369 6.20889 23.6238 6.20889 23.6107 6.20889C23.4146 6.20889 23.0998 6.20889 22.8504 6.20889C22.588 6.20889 22.3918 6.20889 22.3918 6.20889V6.24812L22.4441 6.2612L22.3657 6.24812V6.30042C22.3657 6.30042 22.5749 6.30042 22.8243 6.30042C23.0867 6.30042 23.3875 6.30042 23.5846 6.30042C23.5977 6.30042 23.6238 6.30042 23.6369 6.30042C23.8863 6.30042 24.1609 6.14351 24.3701 5.92027C24.5793 5.69798 24.7503 5.42244 24.7503 5.1469C24.7503 5.00306 24.6979 4.87136 24.5933 4.75367C24.4887 4.63599 24.3309 4.54445 24.0955 4.49121C23.8461 4.49121 23.5061 4.49121 23.2175 4.49121C22.942 4.49121 22.7197 4.49121 22.7197 4.49121H22.6804L22.3003 6.28641H22.3657V6.24812Z" fill="#005FAF"/>
<path d="M21.2788 10.3877L21.3311 10.4008L21.8682 8.44864L21.8159 8.43556V8.48787C21.8159 8.48787 22.72 8.48787 23.1917 8.48787V8.43556L23.1786 8.48787C23.4803 8.55325 23.6765 8.65786 23.8072 8.78956C23.938 8.92033 23.9903 9.0651 23.9903 9.23509C23.9903 9.48448 23.8465 9.77216 23.6232 9.98232C23.4 10.1925 23.0992 10.3494 22.7845 10.3494C22.7583 10.3494 22.7452 10.3494 22.7191 10.3494C22.352 10.3494 21.2779 10.3494 21.2779 10.3494V10.3877L21.3302 10.4008L21.2788 10.3877V10.44C21.2788 10.44 21.5543 10.44 21.8682 10.44C22.182 10.44 22.5491 10.44 22.72 10.44C22.7462 10.44 22.7723 10.44 22.7854 10.44C23.1263 10.44 23.4532 10.2831 23.6895 10.0468C23.9249 9.81139 24.0828 9.5097 24.0828 9.22108C24.0828 9.03801 24.0174 8.85401 23.8735 8.71017C23.7297 8.56633 23.5065 8.44771 23.1926 8.38232C22.9573 8.38232 22.6163 8.38232 22.3277 8.38232C22.0391 8.38232 21.8168 8.38232 21.8168 8.38232H21.7776L21.2144 10.4391H21.2797L21.2788 10.3877Z" fill="#005FAF"/>
<path d="M37.0656 1.17798L36.7247 1.59736C36.4753 1.47967 36.0699 1.41429 35.5721 1.41429C34.3139 1.41429 32.4281 1.84674 30.8029 3.01241C29.1786 4.17808 27.829 6.10405 27.6328 9.06492C27.7243 11.0824 28.55 12.3144 29.6242 13.0345C30.6983 13.7547 32.0349 13.9648 33.1483 13.9648C33.6853 13.9648 34.1832 13.9125 34.5633 13.8471C34.7595 13.8079 34.9173 13.7818 35.0481 13.7425C35.1788 13.7033 35.2704 13.6641 35.3367 13.6379L35.3498 13.6248L37.2757 9.62907L37.1188 9.73368C36.3454 10.2446 35.2321 10.6378 34.1972 10.6378C33.5163 10.6378 32.8736 10.4678 32.402 10.0485C31.9172 9.62907 31.6024 8.97432 31.5501 7.96557C31.6547 7.0222 32.0872 6.26283 32.7158 5.75192C33.3444 5.241 34.1439 4.95239 35.0088 4.95239C35.913 4.95239 36.8825 5.26716 37.7073 5.94806L37.7596 5.98729L37.7857 5.93499L39.6986 2.5538L37.0656 1.17798Z" fill="#005FAF"/>
<path d="M47.2325 1.25659H41.3369L39.4371 4.85914H39.5286H40.3935L36.0176 13.5848H40.3674L41.2323 11.4758H43.7476L43.813 13.5848H47.8218L47.2325 1.25659ZM42.3849 8.59339L43.813 5.20006L43.8784 8.59339H42.3849Z" fill="#005FAF"/>
<path d="M13.5757 1.46576C9.72378 -0.499433 5.11247 -0.447129 1.44454 1.37423C-0.455273 4.70217 -0.507578 9.36578 1.44454 13.5054C5.49262 15.5491 9.96009 15.4183 13.6028 13.5969C15.3177 10.0869 15.5932 5.86784 13.5757 1.46576ZM13.3786 13.4008C9.88069 15.1568 5.58323 15.2875 1.69206 13.3223C-0.181602 9.35271 -0.129296 4.85909 1.69206 1.66191C5.22923 -0.0940656 9.64438 -0.146372 13.3525 1.74037C15.2915 5.97245 15.03 10.0345 13.3786 13.4008Z" fill="#005FAF"/>
<path d="M6.33093 11.4226H6.59339C6.59339 11.4226 6.75031 10.3746 5.63694 9.56198C4.92988 9.05107 2.89837 8.94646 2.57146 8.29077C1.91671 9.27337 2.45377 10.3998 3.18699 10.6623C4.35265 11.0957 5.80694 9.83752 6.33093 11.4226Z" fill="#005FAF"/>
<path d="M8.25684 11.4225H8.50622C9.23943 9.70667 10.6153 11.4879 12.0434 10.466C12.6197 10.0597 12.8168 9.24806 12.2657 8.30469C11.9378 9.26113 8.45298 8.65868 8.25684 11.4225Z" fill="#005FAF"/>
<path d="M7.27406 11.4227H7.57575C7.57575 10.2701 7.36653 8.37025 7.92975 6.91597C8.62374 5.5663 9.17481 5.76338 9.72496 4.40063C10.0528 3.03788 9.46249 1.5836 7.57669 1.38745C5.40227 1.50514 4.74658 3.02481 5.12673 4.42678C5.36211 5.31785 6.45025 5.81568 6.88271 6.91597C7.45713 8.37025 7.24791 10.3485 7.27406 11.4227Z" fill="#005FAF"/>
<path d="M6.84126 11.4226C6.78896 10.794 6.63204 10.2569 6.30419 9.85059C4.82376 7.99 1.78443 9.39198 2.56995 6.22188C2.97625 4.61068 7.60063 3.65424 7.06356 11.4095L6.84126 11.4226Z" fill="#005FAF"/>
<path d="M7.78479 11.4356H8.06033C8.06033 10.5314 8.3751 9.92898 8.97755 9.41807C10.5626 8.26548 13.0256 9.03792 12.2663 6.2349C11.703 4.83292 9.18771 4.29586 8.08742 7.40057C7.74556 8.33086 7.77172 9.61515 7.78479 11.4356Z" fill="#005FAF"/>
<path d="M3.84144 12.72L4.20851 12.8377L4.03852 13.4532L3.89468 13.414L3.90776 13.3224C3.72469 13.4009 3.39684 13.3486 3.35761 13.1394C3.31838 12.9694 3.43607 12.4585 3.63315 12.2222C3.81622 11.9868 4.27483 12.2222 4.28791 12.3529C4.30098 12.4968 4.24868 12.6546 4.24868 12.6546L4.07868 12.6285C4.07868 12.6285 4.09176 12.5761 4.10484 12.4977C4.11791 12.4192 3.89561 12.3277 3.8293 12.4192C3.76391 12.4977 3.64623 12.7863 3.62007 13.0217C3.607 13.2571 3.8293 13.2178 3.89561 13.1786C3.94792 13.1524 3.97407 12.9563 3.97407 12.9563L3.81715 12.904L3.84144 12.72Z" fill="#005FAF"/>
<path d="M5.41288 12.8115C5.39981 12.6154 5.3475 12.4444 4.70582 12.366L4.44336 13.5447L4.69275 13.597L4.81043 13.0992C5.24289 13.0992 5.01966 13.4793 4.9935 13.6624L5.2158 13.7147C5.2158 13.5055 5.35964 13.2169 5.2158 13.0861C5.36058 13.0609 5.39981 12.9553 5.41288 12.8115ZM5.17751 12.8377C5.09905 13.0076 4.96828 12.9161 4.86274 12.903L4.92812 12.6275C5.19058 12.6284 5.19058 12.733 5.17751 12.8377Z" fill="#005FAF"/>
<path d="M5.79294 12.563L6.02831 12.6022L5.9237 13.4279C5.93678 13.7034 6.21232 13.6904 6.26462 13.4802L6.36923 12.6153L6.56538 12.6284L6.47385 13.5848C6.38231 14.0042 5.75371 13.9519 5.67432 13.5456L5.79294 12.563Z" fill="#005FAF"/>
<path d="M6.90674 13.9116L6.97212 12.6665C7.43073 12.6796 7.69226 12.745 7.67918 13.0597C7.65303 13.4922 7.29903 13.4007 7.12904 13.4007L7.08981 13.9246L6.90674 13.9116ZM7.19535 12.8897L7.15612 13.1914C7.27381 13.1784 7.40551 13.283 7.45781 13.0607C7.45688 12.8897 7.32612 12.8897 7.19535 12.8897Z" fill="#005FAF"/>
<path d="M8.67564 13.8593L8.47949 12.6544C8.5841 12.6413 9.08194 12.4582 9.19963 12.7851C9.26501 12.9813 9.19963 13.0607 9.12117 13.1522C9.25193 13.1915 9.30424 13.2961 9.33039 13.4147C9.34347 13.5978 9.27809 13.7164 9.1604 13.7556L8.67564 13.8593ZM8.72794 12.7982L8.78025 13.113C8.92409 13.0868 9.00255 12.9953 8.98947 12.8907C8.9764 12.7982 8.91101 12.7328 8.72794 12.7982ZM8.84563 13.3353L8.89794 13.6501C9.01563 13.6501 9.12024 13.5847 9.09408 13.4278C9.05579 13.2961 8.93717 13.3222 8.84563 13.3353Z" fill="#005FAF"/>
<path d="M10.0913 12.7592L10.3005 12.72C10.2613 12.563 10.2874 12.3529 9.80268 12.4183C9.50099 12.4836 9.59346 12.8638 9.64577 13.2178C9.7373 13.6241 9.78961 13.6895 10.1175 13.6633C10.2613 13.6372 10.4584 13.5979 10.4061 13.1786L10.1968 13.2047C10.223 13.3093 10.2491 13.4009 10.1184 13.4933C10.0138 13.5064 9.97455 13.5326 9.89609 13.4018L9.79148 12.8255C9.76532 12.7078 9.80455 12.6294 9.90916 12.5901C10.0119 12.5761 10.0651 12.6284 10.0913 12.7592Z" fill="#005FAF"/>
<path d="M10.7456 13.4932L10.6802 12.2351L10.9296 12.1697L11.5451 13.2046L11.3751 13.3092L11.1659 13.0206L10.9305 13.1121L10.9566 13.4138L10.7456 13.4932ZM10.8763 12.5368L10.9025 12.9431L11.1248 12.8777L10.8763 12.5368Z" fill="#005FAF"/>
</svg>
