<svg width="23" height="25" viewBox="0 0 23 25" fill="none" xmlns="http://www.w3.org/2000/svg">
<path d="M11.5 18.125C12.1213 18.125 12.625 17.6213 12.625 17C12.625 16.3787 12.1213 15.875 11.5 15.875C10.8787 15.875 10.375 16.3787 10.375 17C10.375 17.6213 10.8787 18.125 11.5 18.125Z" fill="#F2FBFF"/>
<path d="M19.375 10.25H3.625C2.38236 10.25 1.375 11.2574 1.375 12.5V21.5C1.375 22.7426 2.38236 23.75 3.625 23.75H19.375C20.6176 23.75 21.625 22.7426 21.625 21.5V12.5C21.625 11.2574 20.6176 10.25 19.375 10.25Z" fill="#F2FBFF"/>
<path d="M5.875 10.25V6.875C5.875 5.38316 6.46763 3.95242 7.52252 2.89752C8.57742 1.84263 10.0082 1.25 11.5 1.25C12.9918 1.25 14.4226 1.84263 15.4775 2.89752C16.5324 3.95242 17.125 5.38316 17.125 6.875V10.25" fill="#F2FBFF"/>
<path d="M5.875 10.25V6.875C5.875 5.38316 6.46763 3.95242 7.52252 2.89752C8.57742 1.84263 10.0082 1.25 11.5 1.25C12.9918 1.25 14.4226 1.84263 15.4775 2.89752C16.5324 3.95242 17.125 5.38316 17.125 6.875V10.25M12.625 17C12.625 17.6213 12.1213 18.125 11.5 18.125C10.8787 18.125 10.375 17.6213 10.375 17C10.375 16.3787 10.8787 15.875 11.5 15.875C12.1213 15.875 12.625 16.3787 12.625 17ZM3.625 10.25H19.375C20.6176 10.25 21.625 11.2574 21.625 12.5V21.5C21.625 22.7426 20.6176 23.75 19.375 23.75H3.625C2.38236 23.75 1.375 22.7426 1.375 21.5V12.5C1.375 11.2574 2.38236 10.25 3.625 10.25Z" stroke="#00B1FF" stroke-width="2" stroke-linecap="round" stroke-linejoin="round"/>
</svg>
