<svg width="24" height="27" viewBox="0 0 24 27" fill="none" xmlns="http://www.w3.org/2000/svg">
<path d="M3 12.0007L5 10.0007M5 10.0007L12 3.00073L19 10.0007M5 10.0007V20.0007C5 20.2659 5.10536 20.5203 5.29289 20.7078C5.48043 20.8954 5.73478 21.0007 6 21.0007H9M19 10.0007L21 12.0007M19 10.0007V20.0007C19 20.2659 18.8946 20.5203 18.7071 20.7078C18.5196 20.8954 18.2652 21.0007 18 21.0007H15M9 21.0007C9.26522 21.0007 9.51957 20.8954 9.70711 20.7078C9.89464 20.5203 10 20.2659 10 20.0007V16.0007C10 15.7355 10.1054 15.4812 10.2929 15.2936C10.4804 15.1061 10.7348 15.0007 11 15.0007H13C13.2652 15.0007 13.5196 15.1061 13.7071 15.2936C13.8946 15.4812 14 15.7355 14 16.0007V20.0007C14 20.2659 14.1054 20.5203 14.2929 20.7078C14.4804 20.8954 14.7348 21.0007 15 21.0007M9 21.0007H15" stroke="#00B1FF" stroke-width="2" stroke-linecap="round" stroke-linejoin="round"/>
</svg>
