<svg width="23" height="27" viewBox="0 0 23 27" fill="none" xmlns="http://www.w3.org/2000/svg">
<path d="M12.2578 25.8858L12.2437 25.8883L12.153 25.933L12.1274 25.9382L12.1096 25.933L12.0188 25.8883C12.0052 25.8841 11.995 25.8862 11.9882 25.8947L11.9831 25.9075L11.9613 26.4544L11.9677 26.4799L11.9805 26.4965L12.1134 26.5911L12.1326 26.5962L12.1479 26.5911L12.2808 26.4965L12.2961 26.4761L12.3012 26.4544L12.2795 25.9088C12.2761 25.8951 12.2689 25.8875 12.2578 25.8858ZM12.5964 25.7414L12.5798 25.7439L12.3434 25.8628L12.3306 25.8755L12.3268 25.8896L12.3498 26.439L12.3562 26.4544L12.3664 26.4633L12.6232 26.5822C12.6394 26.5864 12.6518 26.583 12.6603 26.5719L12.6654 26.554L12.6219 25.7695C12.6177 25.7542 12.6092 25.7448 12.5964 25.7414ZM11.6828 25.7439C11.6771 25.7405 11.6704 25.7394 11.664 25.7408C11.6576 25.7423 11.6519 25.7461 11.6483 25.7516L11.6406 25.7695L11.5972 26.554C11.598 26.5694 11.6053 26.5796 11.6189 26.5847L11.6381 26.5822L11.8949 26.4633L11.9077 26.4531L11.9128 26.439L11.9345 25.8896L11.9307 25.8743L11.9179 25.8615L11.6828 25.7439Z" fill="white"/>
<path d="M11.5 0C14.4568 0 17.1938 0.521334 19.2408 1.41706C20.2617 1.86428 21.1689 2.42906 21.8372 3.12161C22.4569 3.7605 22.9169 4.56294 22.9898 5.49317L23 5.75V18.5278C23 19.5679 22.5132 20.4572 21.8372 21.1562C21.1689 21.8487 20.2617 22.4135 19.2408 22.8607C17.1938 23.7552 14.4568 24.2778 11.5 24.2778C8.54322 24.2778 5.80622 23.7564 3.75922 22.8607C2.73828 22.4135 1.83106 21.8487 1.16278 21.1562C0.543056 20.5173 0.0830554 19.7148 0.0102221 18.7846L0 18.5278V5.75C0 4.70989 0.486833 3.82056 1.16278 3.12161C1.83106 2.42906 2.73828 1.86428 3.75922 1.41706C5.80622 0.522611 8.54322 0 11.5 0ZM20.4444 15.8534C20.0573 16.0859 19.6552 16.2925 19.2408 16.4718C17.1938 17.3663 14.4568 17.8889 11.5 17.8889C8.54322 17.8889 5.80622 17.3676 3.75922 16.4718C3.34478 16.2925 2.94268 16.0859 2.55556 15.8534V18.5278C2.55556 18.722 2.63989 19.0082 3.00022 19.3801C3.36567 19.7583 3.956 20.1569 4.784 20.5198C6.43744 21.2431 8.81028 21.7222 11.5 21.7222C14.1897 21.7222 16.5626 21.2431 18.216 20.5198C19.044 20.1569 19.6343 19.7583 19.9998 19.3801C20.3601 19.0095 20.4444 18.722 20.4444 18.5278V15.8534ZM20.4444 9.4645C20.0573 9.69701 19.6552 9.90361 19.2408 10.0829C17.1938 10.9774 14.4568 11.5 11.5 11.5C8.54322 11.5 5.80622 10.9787 3.75922 10.0829C3.34478 9.90361 2.94268 9.69701 2.55556 9.4645V12.1389C2.55556 12.3331 2.63989 12.6193 3.00022 12.9912C3.36567 13.3694 3.956 13.7681 4.784 14.1309C6.43744 14.8542 8.81028 15.3333 11.5 15.3333C14.1897 15.3333 16.5626 14.8542 18.216 14.1309C19.044 13.7681 19.6343 13.3694 19.9998 12.9912C20.3601 12.6206 20.4444 12.3331 20.4444 12.1389V9.4645ZM11.5 2.55556C8.81028 2.55556 6.43744 3.03472 4.784 3.75794C3.956 4.12083 3.36567 4.5195 3.00022 4.89772C2.63989 5.26828 2.55556 5.55578 2.55556 5.75C2.55556 5.94422 2.63989 6.23044 3.00022 6.60228C3.36567 6.9805 3.956 7.37917 4.784 7.74206C6.43744 8.46528 8.81028 8.94444 11.5 8.94444C14.1897 8.94444 16.5626 8.46528 18.216 7.74206C19.044 7.37917 19.6343 6.9805 19.9998 6.60228C20.3601 6.23172 20.4444 5.94422 20.4444 5.75C20.4444 5.55578 20.3601 5.26956 19.9998 4.89772C19.6343 4.5195 19.044 4.12083 18.216 3.75794C16.5626 3.03472 14.1897 2.55556 11.5 2.55556Z" fill="white"/>
</svg>
