<?xml version="1.0" encoding="UTF-8"?>
<!DOCTYPE svg PUBLIC "-//W3C//DTD SVG 1.1//EN" "http://www.w3.org/Graphics/SVG/1.1/DTD/svg11.dtd">
<!-- Creator: CorelDRAW -->
<svg xmlns="http://www.w3.org/2000/svg" xml:space="preserve" width="210mm" height="297mm" version="1.1" style="shape-rendering:geometricPrecision; text-rendering:geometricPrecision; image-rendering:optimizeQuality; fill-rule:evenodd; clip-rule:evenodd"
viewBox="0 0 21000 29700"
 xmlns:xlink="http://www.w3.org/1999/xlink">
 <defs>
  <style type="text/css">
   <![CDATA[
    .fil0 {fill:#00BCF1}
   ]]>
  </style>
 </defs>
 <g id="Layer_x0020_1">
  <metadata id="CorelCorpID_0Corel-Layer"/>
  <path id="by.U_x0020_Logo.cdr" class="fil0" d="M20847 10232c-241,831 -516,1687 -820,2571 -241,2574 -207,4671 81,6307 26,151 24,222 108,361 360,471 463,1096 -60,1338 -759,350 -1272,-243 -1494,-1651 -112,-713 -181,-1448 -233,-2281 -283,668 -675,1315 -1109,1868 -843,1072 -2037,1051 -2648,-279 -624,-1356 -774,-3824 -306,-6848 146,-940 371,-1478 591,-1656 401,-325 795,-348 1156,18 324,328 255,777 -132,1078 -314,1119 -430,2452 -447,3655 -20,1490 132,2782 480,3227 461,-421 849,-1127 1184,-1889 442,-1011 893,-2209 1389,-3581 194,-1307 399,-2318 622,-3033 251,-808 665,-1193 1211,-1042 592,165 724,816 427,1837zm-17877 4203c1294,0 2342,1135 2342,2536 0,1400 -1048,2536 -2342,2536 -571,0 -1094,-221 -1501,-589l0 430 -1469 0 0 -6879 1469 0 0 2554c407,-367 930,-588 1501,-588zm-1501 2375l0 321c74,648 588,1150 1211,1150 673,0 1219,-586 1219,-1310 0,-724 -546,-1311 -1219,-1311 -623,0 -1137,502 -1211,1150zm7595 4527l-1557 0 762 -1773 -1986 -4618 1557 0 1167 2904 1249 -2904 1558 0 -2750 6391zm3290 -3342c478,0 865,339 865,756 0,417 -387,756 -865,756 -477,0 -865,-339 -865,-756 0,-417 388,-756 865,-756z"/>
 </g>
</svg>
