<svg width="60" height="60" viewBox="0 0 60 60" fill="none" xmlns="http://www.w3.org/2000/svg">
<path fill-rule="evenodd" clip-rule="evenodd" d="M32.826 55.3103C30.7526 59.2476 24.8505 58.3757 23.6882 53.9603L14.335 18.4271C13.286 14.4418 17.1675 11.1329 20.9365 12.7994L54.5416 27.6584C58.7173 29.5048 58.6442 35.4705 54.4284 36.8947L42.3159 40.9865C40.7917 41.5014 39.5329 42.5744 38.7833 43.998L32.826 55.3103Z" fill="#0E3344"/>
<path fill-rule="evenodd" clip-rule="evenodd" d="M26.7826 53.1468L17.4293 17.6135C17.0629 16.2216 18.3258 15.145 19.6422 15.7271L53.2473 30.5861C54.0615 30.9461 54.4408 31.662 54.4318 32.3967C54.423 33.1148 54.0659 33.6404 53.4039 33.864L41.2915 37.9558C38.9895 38.7334 37.0838 40.3581 35.9516 42.508L29.9944 53.8203C29.6688 54.4385 29.0933 54.7079 28.3828 54.6029C27.656 54.4955 27.0092 54.0077 26.7826 53.1468Z" fill="white"/>
</svg>
