<svg width="134" height="134" viewBox="0 0 134 134" fill="none" xmlns="http://www.w3.org/2000/svg">
<path d="M106.5 119.667C106.5 109.191 102.338 99.1436 94.9306 91.7359C87.5229 84.3282 77.4759 80.1667 66.9998 80.1667M66.9998 80.1667C56.5238 80.1667 46.4768 84.3282 39.0691 91.7359C31.6614 99.1436 27.4998 109.191 27.4998 119.667M66.9998 80.1667C81.5433 80.1667 93.3332 68.3768 93.3332 53.8333C93.3332 39.2898 81.5433 27.5 66.9998 27.5C52.4563 27.5 40.6665 39.2898 40.6665 53.8333C40.6665 68.3768 52.4563 80.1667 66.9998 80.1667ZM132.833 67C132.833 103.359 103.359 132.833 66.9998 132.833C30.6411 132.833 1.1665 103.359 1.1665 67C1.1665 30.6412 30.6411 1.16666 66.9998 1.16666C103.359 1.16666 132.833 30.6412 132.833 67Z" stroke="#00B1FF" stroke-width="2" stroke-linecap="round" stroke-linejoin="round"/>
</svg>
