<svg width="23" height="27" viewBox="0 0 23 27" fill="none" xmlns="http://www.w3.org/2000/svg">
<path d="M1.73362 17.9711C1.22005 19.2089 0.971503 20.5319 1.0026 21.8623C1.0026 27.3792 21.987 27.3792 21.9974 21.8623C22.0285 20.5319 21.78 19.2089 21.2664 17.9711C20.7529 16.7332 19.9845 15.6055 19.0067 14.6541C18.0288 13.7026 16.8611 12.9467 15.572 12.4306C14.283 11.9145 12.8985 11.6486 11.5 11.6486C10.1015 11.6486 8.71703 11.9145 7.42796 12.4306C6.13888 12.9467 4.97115 13.7026 3.9933 14.6541C3.01545 15.6055 2.2472 16.7332 1.73362 17.9711Z" stroke="#0E3344" stroke-width="2" stroke-linecap="round" stroke-linejoin="round"/>
<path d="M11.4922 9.02094C13.8199 9.02094 15.7068 7.22539 15.7068 5.01047C15.7068 2.79555 13.8199 1 11.4922 1C9.1646 1 7.27769 2.79555 7.27769 5.01047C7.27769 7.22539 9.1646 9.02094 11.4922 9.02094Z" stroke="#0E3344" stroke-width="2" stroke-linecap="round" stroke-linejoin="round"/>
</svg>
