<svg width="40" height="21" viewBox="0 0 40 21" fill="none" xmlns="http://www.w3.org/2000/svg">
<g clip-path="url(#clip0_1201_2803)">
<path d="M17.1889 18.2424C17.1889 19.7662 15.9308 20.9976 14.3739 20.9976C12.817 20.9976 11.5589 19.7662 11.5589 18.2424V16.2491C11.5589 17.7729 10.3008 19.0043 8.75172 19.0043C7.19481 19.0043 5.94456 17.7729 5.94456 16.2491H5.9367V15.2024C5.88166 16.757 4.57637 17.9961 2.97228 17.9961C1.33674 18.0038 0 16.7031 0 15.0947C0 15.0639 0 15.0408 0.00786318 15.01V5.99792C0.00786318 5.96714 0 5.94405 0 5.91326C0 4.31248 1.33674 3.00415 2.97228 3.00415C4.57637 3.00415 5.88166 4.24322 5.9367 5.80552V2.75788H5.94456C5.9367 1.23406 7.19481 0.00268555 8.75172 0.00268555C10.3008 0.00268555 11.5589 1.23406 11.5589 2.75788V4.75116C11.5589 3.22734 12.817 1.99597 14.3739 1.99597C15.9229 1.99597 17.1889 3.22734 17.1889 4.75116V5.75934C17.1968 4.24322 18.4549 3.01954 19.9961 3.01954C21.5451 3.01954 22.8032 4.25091 22.8111 5.75934V4.75885C22.8111 3.23503 24.0692 2.00366 25.6261 2.00366C27.183 2.00366 28.4333 3.23503 28.4333 4.75885V5.77473H28.449C28.449 4.25091 29.7071 3.01954 31.2561 3.01954C32.7659 3.01954 33.9925 4.18165 34.0633 5.63621V3.96616V3.90459C34.0633 2.29611 35.3922 0.995478 37.0277 0.995478C38.6633 0.995478 40 2.29611 40 3.89689V15.087C40 16.6955 38.6711 17.9884 37.0356 17.9884C35.4 17.9884 34.0633 16.6878 34.0633 15.087V16.2414C34.0633 17.7575 32.8052 18.9966 31.2483 18.9966C29.6914 18.9966 28.4411 17.7652 28.4411 16.2414H28.4333V15.2486C28.4333 16.7647 27.1752 17.9961 25.6261 17.9961C24.0692 17.9961 22.8111 16.7647 22.8111 15.2486V16.2491C22.8111 17.7652 21.553 18.9966 19.9961 18.9966C18.447 18.9966 17.1889 17.7652 17.1889 16.2491V18.2424Z" fill="#FFD400"/>
<path d="M38.3487 10.3153C37.9084 10.0844 37.4051 9.95361 36.8705 9.95361C36.3358 9.95361 35.8325 10.0844 35.3922 10.3153C34.8182 10.6232 34.3464 11.1003 34.0554 11.6775C33.7645 11.0926 33.3006 10.6155 32.7187 10.3153C32.2784 10.0844 31.7751 9.95361 31.2404 9.95361C30.7057 9.95361 30.2025 10.0844 29.7621 10.3153C29.1803 10.6232 28.7085 11.1003 28.4254 11.6929C28.1345 11.108 27.6627 10.6232 27.0808 10.3153C26.6405 10.0844 26.1372 9.95361 25.6104 9.95361C25.0757 9.95361 24.5724 10.0844 24.1321 10.3153C23.5581 10.6155 23.0863 11.0926 22.8032 11.6698C22.5123 11.0926 22.0484 10.6232 21.4743 10.3153C21.034 10.0844 20.5308 9.95361 19.9961 9.95361C19.4614 9.95361 18.9581 10.0844 18.5178 10.3153C17.9359 10.6232 17.4641 11.1003 17.181 11.6775C16.8901 11.0926 16.4183 10.6155 15.8443 10.3153C15.404 10.0844 14.9007 9.95361 14.3739 9.95361C13.8392 9.95361 13.336 10.0844 12.8956 10.3153C12.3137 10.6232 11.8419 11.1003 11.5589 11.6775C11.2758 11.0926 10.804 10.6155 10.2221 10.3153C9.7818 10.0844 9.27855 9.95361 8.74386 9.95361C8.20916 9.95361 7.70592 10.0844 7.26558 10.3153C6.6837 10.6232 6.21191 11.1003 5.92884 11.6775C5.64576 11.0926 5.17397 10.6155 4.5921 10.3153C4.15176 10.0844 3.64852 9.95361 3.11382 9.95361C2.57912 9.95361 2.07588 10.0844 1.63554 10.3153C0.66837 10.831 0 11.8468 0 13.009C0 14.6944 1.39965 16.0643 3.12168 16.0643C4.36407 16.0643 5.42559 15.3563 5.9367 14.3404C6.44781 15.3563 7.5172 16.0643 8.75172 16.0643C9.98624 16.0643 11.0556 15.3563 11.5589 14.3404C12.0621 15.3563 13.1315 16.0643 14.3739 16.0643C15.6084 16.0643 16.6778 15.3563 17.1889 14.3404C17.6922 15.3563 18.7615 16.0643 20.0039 16.0643C21.2385 16.0643 22.3 15.3639 22.8111 14.3481C23.3222 15.3639 24.3837 16.0643 25.6182 16.0643C26.8606 16.0643 27.93 15.3563 28.4333 14.325C28.9365 15.3486 30.0059 16.0643 31.2483 16.0643C32.4828 16.0643 33.5522 15.3563 34.0633 14.3404C34.5665 15.3563 35.6359 16.0643 36.8783 16.0643C38.6082 16.0643 40 14.6944 40 13.009C40 11.8468 39.3316 10.831 38.3487 10.3153Z" fill="#ED1C24"/>
<path d="M27.2065 12.9858V10.3768C27.01 10.2614 26.7976 10.169 26.5696 10.092V11.8006L26.5224 11.7621C26.4753 11.7159 26.4124 11.6774 26.3494 11.6313C26.2787 11.5928 26.2 11.5543 26.1214 11.5235C26.0428 11.4927 25.9563 11.4696 25.8698 11.4465C25.7833 11.4235 25.6968 11.4158 25.6182 11.4158C25.398 11.4158 25.1857 11.4542 24.997 11.5389C24.8004 11.6236 24.6353 11.739 24.4937 11.8698C24.3522 12.0084 24.2343 12.1777 24.1556 12.3624C24.0691 12.5471 24.0298 12.7549 24.0298 12.9704C24.0298 13.1859 24.0691 13.386 24.1556 13.5784C24.2343 13.7708 24.3522 13.9324 24.4937 14.0709C24.6353 14.2094 24.8083 14.3249 24.997 14.4018C25.1857 14.4865 25.398 14.525 25.6182 14.525C25.8383 14.525 26.0506 14.4865 26.2394 14.4018C26.4359 14.3249 26.6011 14.2094 26.7426 14.0709C26.8841 13.9324 27.0021 13.7631 27.0807 13.5784C27.1672 13.4167 27.2065 13.2089 27.2065 12.9858ZM26.5696 12.9858C26.5696 13.1166 26.546 13.232 26.491 13.3475C26.4438 13.4629 26.373 13.5553 26.2865 13.6476C26.2 13.7323 26.0978 13.7938 25.9799 13.8477C25.8619 13.9016 25.744 13.9247 25.6103 13.9247C25.4766 13.9247 25.3508 13.9016 25.2329 13.8477C25.1228 13.7938 25.0127 13.7323 24.9262 13.6476C24.8397 13.563 24.7768 13.4629 24.7218 13.3475C24.6746 13.232 24.6431 13.1089 24.6431 12.9858C24.6431 12.8549 24.6746 12.7318 24.7218 12.6163C24.7768 12.5009 24.8397 12.4086 24.9262 12.3239C25.0127 12.2392 25.1149 12.17 25.2329 12.1238C25.4688 12.0238 25.744 12.0238 25.972 12.1238C26.09 12.17 26.1922 12.2392 26.2787 12.3239C26.3652 12.4086 26.4359 12.5086 26.4831 12.6163C26.546 12.7395 26.5696 12.8626 26.5696 12.9858ZM4.23819 11.9083C4.09665 11.7698 3.93152 11.6543 3.73494 11.5697C3.54623 11.485 3.33392 11.4465 3.11375 11.4465C2.89358 11.4465 2.68128 11.485 2.49256 11.5697C2.29598 11.6543 2.13086 11.7698 1.98932 11.9083C1.84778 12.0545 1.72983 12.2162 1.6512 12.4009C1.56471 12.5856 1.52539 12.7934 1.52539 13.0088C1.52539 13.2243 1.56471 13.4321 1.6512 13.6168C1.7377 13.8092 1.84778 13.9786 1.98932 14.1094C2.13086 14.2479 2.29598 14.3634 2.49256 14.4403C2.68914 14.525 2.89358 14.5635 3.11375 14.5635C3.33392 14.5635 3.54623 14.525 3.73494 14.4403C3.93152 14.3557 4.09665 14.2479 4.23819 14.1094C4.37972 13.9709 4.49767 13.8092 4.5763 13.6168C4.6628 13.4321 4.70212 13.2243 4.70212 13.0088C4.70212 12.7934 4.6628 12.5856 4.5763 12.4009C4.49767 12.2162 4.37972 12.0545 4.23819 11.9083ZM3.99443 13.3783C3.93939 13.4937 3.86862 13.5938 3.78999 13.6784C3.70349 13.7631 3.60127 13.8323 3.48332 13.8785C3.36537 13.9247 3.23956 13.9555 3.11375 13.9555C2.98008 13.9555 2.86213 13.9247 2.74418 13.8785C2.62624 13.8246 2.52401 13.7631 2.44538 13.6784C2.35889 13.5938 2.29598 13.4937 2.24094 13.3783C2.19376 13.2628 2.16231 13.1397 2.16231 13.0165C2.16231 12.8857 2.19376 12.7626 2.24094 12.6471C2.29598 12.5317 2.35889 12.4316 2.44538 12.347C2.53188 12.2623 2.6341 12.2008 2.74418 12.1469C2.86213 12.1007 2.98794 12.0699 3.11375 12.0699C3.24743 12.0699 3.36537 12.1007 3.48332 12.1469C3.59341 12.2008 3.69563 12.2623 3.78999 12.347C3.87648 12.4316 3.94725 12.5317 3.99443 12.6471C4.09665 12.8703 4.09665 13.1474 3.99443 13.3783ZM9.86822 11.9083C9.72669 11.7698 9.5537 11.6543 9.36498 11.5697C9.17626 11.485 8.96396 11.4465 8.74379 11.4465C8.51576 11.4465 8.31131 11.485 8.1226 11.5697C7.92602 11.6543 7.76089 11.7698 7.61935 11.9083C7.46995 12.0545 7.35987 12.2162 7.28124 12.4009C7.19474 12.5856 7.15543 12.7934 7.15543 13.0088C7.15543 13.2243 7.19474 13.4321 7.28124 13.6168C7.36773 13.8092 7.47782 13.9786 7.61935 14.1094C7.76089 14.2479 7.92602 14.3634 8.1226 14.4403C8.31131 14.525 8.52362 14.5635 8.74379 14.5635C8.96396 14.5635 9.17626 14.525 9.36498 14.4403C9.5537 14.3557 9.72669 14.2479 9.86822 14.1094C10.0098 13.9709 10.1277 13.8092 10.2063 13.6168C10.2928 13.4321 10.3322 13.2243 10.3322 13.0088C10.3322 12.7934 10.2928 12.5856 10.2063 12.4009C10.1198 12.2162 10.0098 12.0545 9.86822 11.9083ZM9.6166 13.3783C9.56156 13.4937 9.49865 13.5938 9.41216 13.6784C9.32566 13.7631 9.22344 13.8323 9.11336 13.8785C8.99541 13.9247 8.8696 13.9555 8.74379 13.9555C8.61012 13.9555 8.4843 13.9247 8.36636 13.8785C8.25627 13.8246 8.15405 13.7631 8.06756 13.6784C7.98106 13.5938 7.91816 13.4937 7.86311 13.3783C7.81593 13.2628 7.78448 13.1397 7.78448 13.0165C7.78448 12.8857 7.80807 12.7626 7.86311 12.6471C7.91816 12.5317 7.98892 12.4316 8.06756 12.347C8.15405 12.2623 8.25627 12.2008 8.36636 12.1469C8.4843 12.1007 8.61012 12.0699 8.74379 12.0699C8.8696 12.0699 8.99541 12.1007 9.11336 12.1469C9.22344 12.2008 9.32566 12.2623 9.41216 12.347C9.49865 12.4316 9.56942 12.5317 9.6166 12.6471C9.71882 12.8703 9.71882 13.1474 9.6166 13.3783ZM32.3648 11.9083C32.2232 11.7698 32.0503 11.6543 31.8615 11.5697C31.6728 11.485 31.4605 11.4465 31.2403 11.4465C31.0202 11.4465 30.8079 11.485 30.6192 11.5697C30.4226 11.6543 30.2574 11.7698 30.1159 11.9083C29.9744 12.0545 29.8643 12.2162 29.7778 12.4009C29.6913 12.5856 29.652 12.7934 29.652 13.0088C29.652 13.2243 29.6913 13.4321 29.7778 13.6168C29.8643 13.8092 29.9744 13.9786 30.1159 14.1094C30.2574 14.2479 30.4226 14.3634 30.6192 14.4403C30.8157 14.525 31.0202 14.5635 31.2403 14.5635C31.4605 14.5635 31.6728 14.525 31.8615 14.4403C32.0503 14.3557 32.2232 14.2479 32.3648 14.1094C32.5063 13.9709 32.6164 13.8092 32.7029 13.6168C32.7894 13.4321 32.8287 13.2243 32.8287 13.0088C32.8287 12.7934 32.7894 12.5856 32.7029 12.4009C32.6164 12.2162 32.5063 12.0545 32.3648 11.9083ZM32.121 13.3783C32.066 13.4937 32.0031 13.5938 31.9166 13.6784C31.8301 13.7631 31.7279 13.8323 31.6099 13.8785C31.492 13.9247 31.374 13.9555 31.2403 13.9555C31.1067 13.9555 30.9887 13.9247 30.8708 13.8785C30.7528 13.8246 30.6506 13.7631 30.5641 13.6784C30.4776 13.5938 30.4069 13.4937 30.3597 13.3783C30.3125 13.2628 30.2889 13.1397 30.2889 13.0165C30.2889 12.8857 30.3125 12.7626 30.3597 12.6471C30.4069 12.5317 30.4776 12.4316 30.5641 12.347C30.6506 12.2623 30.7528 12.2008 30.8708 12.1469C30.9887 12.1007 31.1067 12.0699 31.2403 12.0699C31.374 12.0699 31.492 12.1007 31.6099 12.1469C31.7279 12.2008 31.8301 12.2623 31.9166 12.347C32.0031 12.4316 32.066 12.5317 32.121 12.6471C32.2154 12.8703 32.2154 13.1474 32.121 13.3783ZM37.9948 11.9083C37.8454 11.7698 37.6803 11.6543 37.4916 11.5697C37.295 11.485 37.0906 11.4465 36.8704 11.4465C36.6502 11.4465 36.4379 11.485 36.2492 11.5697C36.0605 11.6543 35.8875 11.7698 35.7459 11.9083C35.6044 12.0545 35.4943 12.2162 35.4078 12.4009C35.3213 12.5856 35.282 12.7934 35.282 13.0088C35.282 13.2243 35.3213 13.4321 35.4078 13.6168C35.4943 13.8092 35.6044 13.9786 35.7459 14.1094C35.8875 14.2479 36.0526 14.3634 36.2492 14.4403C36.4458 14.525 36.6502 14.5635 36.8704 14.5635C37.0906 14.5635 37.3029 14.525 37.4916 14.4403C37.6803 14.3557 37.8454 14.2479 37.9948 14.1094C38.1364 13.9709 38.2464 13.8092 38.3329 13.6168C38.4194 13.4321 38.4587 13.2243 38.4587 13.0088C38.4587 12.7934 38.4194 12.5856 38.3329 12.4009C38.2464 12.2162 38.1285 12.0545 37.9948 11.9083ZM37.7432 13.3783C37.6882 13.4937 37.6252 13.5938 37.5388 13.6784C37.4523 13.7631 37.35 13.8323 37.2321 13.8785C37.1141 13.9247 36.9883 13.9555 36.8625 13.9555C36.7288 13.9555 36.603 13.9247 36.493 13.8785C36.375 13.8246 36.2728 13.7631 36.1941 13.6784C36.1077 13.5938 36.0369 13.4937 35.9897 13.3783C35.9425 13.2628 35.9189 13.1397 35.9189 13.0165C35.9189 12.8857 35.9425 12.7626 35.9897 12.6471C36.0448 12.5317 36.1077 12.4316 36.1941 12.347C36.2806 12.2623 36.3829 12.2008 36.493 12.1469C36.6109 12.1007 36.7288 12.0699 36.8625 12.0699C36.9962 12.0699 37.1141 12.1007 37.2321 12.1469C37.35 12.2008 37.4523 12.2623 37.5388 12.347C37.6252 12.4316 37.6882 12.5317 37.7432 12.6471C37.8454 12.8703 37.8454 13.1474 37.7432 13.3783ZM15.0422 12.3393C15.1287 12.4239 15.1995 12.524 15.2466 12.6394C15.2781 12.701 15.2938 12.7703 15.3095 12.8395H15.9543C15.9386 12.6779 15.8993 12.5317 15.8364 12.3932C15.7499 12.2008 15.6319 12.0391 15.4983 11.9006C15.3567 11.7621 15.1837 11.6466 14.995 11.5697C14.8063 11.485 14.594 11.4465 14.3738 11.4465C14.1537 11.4465 13.9414 11.485 13.7526 11.5697C13.5639 11.6543 13.3909 11.7621 13.2494 11.9006C13.1079 12.0391 12.9978 12.2085 12.9113 12.3932C12.8326 12.5856 12.7855 12.7857 12.7855 13.0088V14.4865H13.4224V12.9627C13.4302 12.8472 13.4538 12.7395 13.501 12.6394C13.5482 12.524 13.619 12.4239 13.7055 12.3393C13.792 12.2546 13.8942 12.1931 14.0121 12.1392C14.248 12.0391 14.5232 12.0391 14.7591 12.1392C14.8535 12.1854 14.9557 12.2546 15.0422 12.3393ZM21.4586 12.4393C21.3878 12.2469 21.2777 12.0776 21.144 11.9314C21.0103 11.7852 20.8374 11.6697 20.6486 11.5774C20.4599 11.4927 20.2319 11.4465 19.9881 11.4465C19.768 11.4465 19.5635 11.485 19.3669 11.5697C19.1782 11.6543 19.0052 11.7698 18.8637 11.9006C18.7222 12.0391 18.6042 12.2085 18.5177 12.3932C18.4391 12.5779 18.3998 12.7857 18.3998 13.0012C18.3998 13.2166 18.4391 13.4244 18.5177 13.6091C18.6042 13.8015 18.7222 13.9632 18.8637 14.1017C19.0052 14.2402 19.1782 14.348 19.3669 14.4326C19.5635 14.5173 19.768 14.5558 19.9881 14.5558C20.1533 14.5558 20.3184 14.5327 20.4835 14.4942C20.6408 14.448 20.798 14.3788 20.9317 14.2864C21.0733 14.194 21.1991 14.0632 21.3013 13.917C21.4035 13.7708 21.49 13.6014 21.5529 13.3937H20.8609C20.7902 13.5553 20.6801 13.6861 20.5386 13.7862C20.3892 13.8862 20.2083 13.9401 19.9881 13.9401C19.8623 13.9401 19.7444 13.917 19.6264 13.8708C19.5163 13.8246 19.4141 13.7631 19.3276 13.6784C19.2411 13.6014 19.1704 13.5014 19.1153 13.3937C19.0603 13.2859 19.0288 13.1705 19.0288 13.0473V13.0165H21.5844C21.5765 12.8164 21.5372 12.624 21.4586 12.4393ZM19.1468 12.4855L19.1704 12.447C19.3276 12.2008 19.6028 12.0699 19.996 12.0545C20.3813 12.0545 20.6486 12.1931 20.8059 12.447L20.8295 12.4855H19.1468Z" fill="white"/>
<path d="M37.6882 8.26807C37.586 8.26807 37.4995 8.26037 37.4445 8.23729C37.3894 8.22189 37.3501 8.19881 37.3186 8.16033C37.2872 8.12185 37.2715 8.07567 37.2636 8.0141C37.2557 7.94484 37.2479 7.86788 37.2479 7.79091V6.82121H37.7039V6.15935H37.2479V4.67401H36.5402V6.16705H36.1706V6.82891H36.5402V7.92944C36.5402 8.09106 36.5638 8.22959 36.5952 8.35273C36.6345 8.48356 36.6896 8.58361 36.7761 8.67596C36.8626 8.76062 36.9648 8.82988 37.1063 8.87606C37.24 8.92224 37.3973 8.94532 37.586 8.94532H37.7511V8.26807H37.6882ZM21.1362 6.23631C20.9868 6.09008 20.8138 5.97464 20.6173 5.88999C20.4207 5.80533 20.2084 5.76685 19.9803 5.76685C19.7523 5.76685 19.54 5.80533 19.3434 5.88999C19.1468 5.97464 18.9738 6.09008 18.8244 6.23631C18.675 6.37484 18.5571 6.55185 18.4706 6.74425C18.3841 6.93665 18.3369 7.14445 18.3369 7.36763C18.3369 7.59082 18.3841 7.79861 18.4706 7.98332C18.641 8.36565 18.9528 8.67081 19.3434 8.83758C19.54 8.92224 19.7523 8.96072 19.9803 8.96072C20.2084 8.96072 20.4207 8.92224 20.6173 8.83758C20.8138 8.75292 20.9947 8.63748 21.1362 8.49126C21.2856 8.34503 21.4036 8.17572 21.4901 7.98332C21.5766 7.79091 21.6159 7.58312 21.6159 7.36763C21.6159 7.14445 21.5687 6.93665 21.4901 6.74425C21.3957 6.55185 21.2778 6.37484 21.1362 6.23631ZM19.9803 8.22959C19.8545 8.22959 19.7366 8.2065 19.6344 8.16033C19.5321 8.11415 19.4299 8.05258 19.3513 7.97562C19.2726 7.89866 19.2097 7.80631 19.1626 7.69856C19.1154 7.59082 19.0918 7.47538 19.0918 7.35994C19.0918 7.24449 19.1154 7.12905 19.1626 7.02131C19.2097 6.91356 19.2726 6.82121 19.3513 6.74425C19.4378 6.66729 19.5243 6.60572 19.6344 6.55954C19.7366 6.51337 19.8545 6.49028 19.9803 6.49028C20.1061 6.49028 20.2162 6.51337 20.3263 6.55954C20.4364 6.60572 20.5308 6.66729 20.6094 6.74425C20.6959 6.82121 20.7588 6.91356 20.7981 7.02131C20.8453 7.12905 20.8689 7.24449 20.8689 7.35994C20.8689 7.48307 20.8453 7.59082 20.7981 7.69856C20.7509 7.80631 20.688 7.89866 20.6094 7.97562C20.5308 8.06028 20.4364 8.11415 20.3263 8.16033C20.2162 8.2142 20.0983 8.22959 19.9803 8.22959ZM15.2703 6.12087C15.2231 6.07469 15.1602 6.03621 15.0894 5.99773C15.0187 5.95925 14.94 5.92077 14.8614 5.88999C14.7749 5.8592 14.6884 5.82842 14.6098 5.81303C14.5233 5.78994 14.4368 5.78224 14.3424 5.78224C14.1144 5.78224 13.9021 5.82072 13.7055 5.90538C13.5089 5.99004 13.3359 6.10548 13.1944 6.24401C13.0529 6.38253 12.9349 6.55185 12.8484 6.74425C12.7619 6.93665 12.7226 7.14445 12.7226 7.35994C12.7226 7.58312 12.7619 7.79091 12.8484 7.98332C12.9349 8.17572 13.0529 8.34503 13.1944 8.48356C13.3359 8.62209 13.5089 8.73753 13.7055 8.82219C13.9021 8.90684 14.1144 8.94532 14.3424 8.94532C14.5705 8.94532 14.7828 8.90684 14.9794 8.82219C15.1759 8.73753 15.3489 8.62979 15.4905 8.49126C15.6399 8.34503 15.7578 8.17572 15.8364 7.98332C15.9229 7.79091 15.9622 7.58312 15.9622 7.35224V4.42773H15.2624V6.12087H15.2703ZM13.9886 8.2065C13.8706 8.16033 13.7763 8.09106 13.6977 8.0141C13.6112 7.92944 13.5483 7.83709 13.4932 7.72165C13.446 7.61391 13.4224 7.49077 13.4224 7.36763C13.4224 7.24449 13.446 7.12905 13.4932 7.02131C13.5483 6.90587 13.6112 6.81351 13.6977 6.72886C13.7841 6.6442 13.8785 6.58263 13.9965 6.53646C14.1065 6.49028 14.2323 6.46719 14.3503 6.46719C14.4761 6.46719 14.6019 6.49028 14.712 6.53646C14.8221 6.58263 14.9164 6.6519 15.0029 6.72886C15.0894 6.81351 15.1523 6.90587 15.2074 7.02131C15.2546 7.12905 15.2782 7.25219 15.2782 7.36763C15.2782 7.49077 15.2546 7.61391 15.2074 7.72165C15.1602 7.8294 15.0894 7.92175 15.0029 8.0141C14.9164 8.09876 14.8221 8.16033 14.7041 8.2065C14.484 8.30655 14.2088 8.30655 13.9886 8.2065ZM32.758 6.73655C32.7187 6.6519 32.6715 6.55185 32.6086 6.4595C32.5536 6.37484 32.4907 6.29788 32.412 6.22861C32.3884 6.20553 32.3727 6.19013 32.3491 6.17474L32.3177 6.14396C32.3098 6.13626 32.3019 6.13626 32.3019 6.12856C32.2862 6.11317 32.2705 6.10548 32.2548 6.09008L32.239 6.07469C32.2312 6.07469 32.2233 6.067 32.2076 6.0593L32.1997 6.0516C32.1919 6.04391 32.184 6.03621 32.1761 6.03621C32.1683 6.02852 32.1604 6.02082 32.1447 6.01312C32.1368 6.01312 32.1368 6.00543 32.1289 5.99773C32.0975 5.98234 32.0739 5.95925 32.0346 5.94386L32.0189 5.93616C31.9795 5.92077 31.9402 5.89768 31.9009 5.88229C31.7043 5.79763 31.492 5.75915 31.2561 5.75915C31.0281 5.75915 30.8158 5.79763 30.6192 5.88229C30.5878 5.89768 30.5563 5.91308 30.5249 5.92077L30.4777 5.94386C30.4462 5.95925 30.4226 5.98234 30.3912 5.99773L30.3755 6.00543C30.3597 6.01312 30.3519 6.02082 30.344 6.02852C30.3283 6.03621 30.3126 6.04391 30.3047 6.0593L30.2654 6.08239C30.2496 6.09778 30.2339 6.10548 30.2182 6.12087C30.2103 6.12087 30.2103 6.12856 30.2025 6.13626L30.1867 6.15165C30.1632 6.17474 30.1317 6.19783 30.1081 6.22092C30.0609 6.26709 30.0138 6.32097 29.9587 6.39023L29.9508 6.40562C29.9508 6.41332 29.943 6.42102 29.9351 6.42871C29.9273 6.43641 29.9194 6.4518 29.9115 6.4595C29.8801 6.49798 29.8565 6.54415 29.825 6.60572L29.8172 6.61342C29.7936 6.65959 29.77 6.69807 29.7543 6.74425V6.75964C29.7543 6.75964 29.7464 6.76734 29.7464 6.77503C29.7307 6.80582 29.7228 6.82891 29.7149 6.85969L29.7071 6.87508C29.6992 6.89048 29.6992 6.89817 29.6914 6.90587C29.6914 6.92126 29.6835 6.92896 29.6835 6.94435C29.6756 6.95974 29.6756 6.97513 29.6678 6.99052C29.652 7.05979 29.6363 7.12905 29.6285 7.19832L29.6206 7.2291H29.6285V7.56003C29.6442 7.71395 29.6835 7.86018 29.7385 7.99101C29.825 8.18341 29.943 8.35273 30.0924 8.49895C30.1553 8.56052 30.2182 8.61439 30.2732 8.65287C30.3833 8.72983 30.4934 8.7991 30.6035 8.84528C30.8001 8.92993 31.0124 8.96841 31.2404 8.96841C31.3348 8.96841 31.4213 8.95302 31.5078 8.93763C31.5943 8.91454 31.6886 8.89145 31.7751 8.85297C31.8616 8.81449 31.9402 8.76831 32.011 8.71444C32.0582 8.68366 32.0975 8.64518 32.1368 8.6067V8.89915H32.8681V7.19062C32.8602 7.0367 32.8209 6.88278 32.758 6.73655ZM32.1525 7.36763C32.1525 7.51386 32.1289 7.63699 32.0818 7.74474C32.0346 7.85248 31.9638 7.94484 31.8852 8.0141C31.7987 8.09106 31.7043 8.14493 31.6021 8.17572C31.492 8.2065 31.3741 8.22959 31.2561 8.22959C31.1303 8.22959 31.0202 8.2065 30.9102 8.16033C30.8079 8.11415 30.7057 8.05258 30.6271 7.97562C30.5484 7.89866 30.4855 7.80631 30.4384 7.69856C30.3912 7.59851 30.3676 7.48307 30.3676 7.35994C30.3676 7.2368 30.3912 7.12136 30.4384 7.02131C30.4934 6.90587 30.5484 6.82121 30.6271 6.74425C30.7057 6.66729 30.8001 6.59802 30.9102 6.55954C31.0202 6.51337 31.1303 6.49028 31.2561 6.49028C31.3819 6.49028 31.492 6.51337 31.6021 6.54415C31.7122 6.58263 31.8066 6.6365 31.8852 6.71347C31.9638 6.78273 32.0267 6.87508 32.0739 6.98283C32.1289 7.09827 32.1525 7.2291 32.1525 7.36763ZM2.72852 5.91308H3.4362V8.96072H2.72852V5.91308ZM26.6247 7.41381C26.5304 7.33685 26.4124 7.26758 26.2709 7.20601C26.1372 7.14445 25.9878 7.09057 25.8305 7.0367C25.7598 7.00592 25.689 6.99052 25.6261 6.96744L25.5553 6.94435C25.4767 6.92126 25.4138 6.89817 25.3587 6.87508C25.3116 6.852 25.2723 6.82891 25.2487 6.79043C25.2251 6.75964 25.2093 6.72886 25.2093 6.68268V6.66729C25.2093 6.6442 25.2172 6.62881 25.2251 6.60572C25.2329 6.59033 25.2487 6.56724 25.2723 6.55954C25.3037 6.54415 25.343 6.52876 25.3902 6.52106C25.4452 6.50567 25.516 6.50567 25.6025 6.50567C25.7676 6.50567 25.9092 6.52106 26.0428 6.55185C26.1687 6.58263 26.3102 6.63651 26.4517 6.70577L26.4832 6.72116L26.8056 6.10548L26.7741 6.09008C26.5854 5.99773 26.3888 5.93616 26.1844 5.88999C25.9799 5.84381 25.7991 5.82072 25.634 5.82072H25.6261C25.4688 5.82072 25.3194 5.84381 25.17 5.88229C25.0206 5.92077 24.887 5.98234 24.7769 6.0593C24.6589 6.13626 24.5646 6.22861 24.4938 6.34405C24.423 6.4518 24.3837 6.58263 24.3837 6.71347V6.72886C24.3837 6.87508 24.4152 6.99822 24.4781 7.09827C24.541 7.19832 24.6196 7.29067 24.7218 7.35994C24.8241 7.4292 24.942 7.49077 25.0835 7.54464C25.2172 7.59082 25.3666 7.63699 25.5239 7.68317C25.7205 7.73704 25.8777 7.79861 25.9957 7.86018C26.0979 7.92175 26.1529 7.99101 26.1529 8.09106V8.10645C26.1529 8.16802 26.1215 8.22189 26.0428 8.25268C25.9564 8.29116 25.8384 8.30655 25.6969 8.30655C25.6025 8.30655 25.5081 8.29885 25.4217 8.29116C25.343 8.28346 25.2723 8.26807 25.1936 8.24498C25.115 8.22189 25.0442 8.19111 24.9735 8.16033C24.9027 8.12954 24.8241 8.08337 24.7376 8.03719L24.714 8.0218L24.2972 8.61439L24.3208 8.62979C24.423 8.69135 24.5331 8.74523 24.6511 8.7914C24.769 8.83758 24.887 8.87606 25.0049 8.90684C25.1229 8.93763 25.2408 8.96072 25.3587 8.97611C25.4767 8.9915 25.5789 8.9992 25.6733 8.9992C25.8305 8.9992 25.9878 8.97611 26.1372 8.93763C26.2866 8.89915 26.4281 8.83758 26.5461 8.75292C26.6719 8.66827 26.7663 8.57591 26.8449 8.45278C26.9235 8.33734 26.9628 8.19881 26.9628 8.05258V8.03719C26.9628 7.89866 26.9314 7.77552 26.8842 7.66778C26.7977 7.58312 26.7191 7.49077 26.6247 7.41381ZM10.3479 8.96841H9.64811V7.40611C9.64025 7.29837 9.61666 7.19062 9.57735 7.09827C9.53017 6.99052 9.4594 6.89048 9.38077 6.81351C9.29427 6.72886 9.19991 6.66729 9.08983 6.61342C8.97974 6.56724 8.8618 6.54415 8.72812 6.54415C8.60231 6.54415 8.48436 6.56724 8.37428 6.61342C8.26419 6.65959 8.16197 6.72886 8.08334 6.81351C7.99685 6.89817 7.93394 6.99052 7.88676 7.09827C7.83958 7.19832 7.81599 7.30606 7.80813 7.40611V8.96841H7.10831V7.29067C7.1319 7.12905 7.16335 6.97513 7.23412 6.82891C7.27343 6.73655 7.32848 6.6442 7.38352 6.55185C7.43856 6.46719 7.50933 6.39023 7.5801 6.32097L7.643 6.2594L7.65873 6.24401L7.68232 6.22092L7.71377 6.19013C7.7295 6.18244 7.73736 6.17474 7.75309 6.16705C7.76881 6.15165 7.7924 6.13626 7.80813 6.12087C7.82386 6.11317 7.83958 6.10548 7.85531 6.09008L7.87104 6.08239C7.89462 6.067 7.91821 6.0516 7.94967 6.04391L7.95753 6.03621C8.00471 6.01312 8.04403 5.99004 8.08334 5.97464C8.27992 5.88999 8.49223 5.85151 8.72026 5.85151H8.72812C8.95615 5.85151 9.16846 5.88999 9.36504 5.97464C9.41222 5.99004 9.45153 6.01312 9.48299 6.03621C9.48299 6.03621 9.49085 6.03621 9.49085 6.04391C9.5223 6.0593 9.54589 6.07469 9.56948 6.09008L9.58521 6.09778C9.60094 6.10548 9.61666 6.11317 9.63239 6.12856L9.64025 6.13626C9.65598 6.15165 9.67957 6.15935 9.69529 6.17474C9.70316 6.18244 9.71888 6.19013 9.72675 6.19783C9.74247 6.20553 9.75034 6.21322 9.76606 6.22092L9.79751 6.24401C9.8211 6.26709 9.85256 6.29018 9.88401 6.32097C9.96264 6.39023 10.0255 6.46719 10.0885 6.55185C10.1435 6.63651 10.1985 6.72886 10.2379 6.82891C10.3008 6.96744 10.3401 7.12136 10.3558 7.28297V7.31376L10.3479 8.96841Z" fill="#231F20"/>
</g>
<defs>
<clipPath id="clip0_1201_2803">
<rect width="40" height="21" fill="white"/>
</clipPath>
</defs>
</svg>
