<svg width="28" height="37" viewBox="0 0 28 37" fill="none" xmlns="http://www.w3.org/2000/svg">
<path fill-rule="evenodd" clip-rule="evenodd" d="M12.2586 0.015625C12.1472 0.0174488 12.004 0.0654098 12.0025 0.24917C12.0012 0.43293 12.1989 0.824307 12.1879 1.7225C12.1766 2.6557 11.9544 3.29038 10.6007 4.88689L5.23494 11.2154C2.13003 14.8775 0.0194776 16.5474 0.0097988 20.5421C6.87538e-05 24.5368 2.13161 26.4889 5.23719 28.895C8.34276 31.3011 12.3658 34.4249 15.4955 36.8717C15.5666 36.9272 15.6551 36.9862 15.7665 36.9845C15.878 36.9827 16.0212 36.9347 16.0226 36.751C16.0239 36.5672 15.8104 36.3867 15.8213 35.4885C15.8326 34.5554 15.9268 33.9941 17.2889 32.4042L22.923 25.8273C26.0471 22.1804 27.9807 20.5496 27.9903 16.6026C28.0001 12.6556 25.8505 10.5004 23.0987 8.44596C19.4789 5.74348 15.2713 2.33599 12.5296 0.128405C12.4594 0.0719163 12.37 0.0138998 12.2586 0.0156743L12.2586 0.015625Z" fill="url(#paint0_radial_1200_2795)"/>
<path fill-rule="evenodd" clip-rule="evenodd" d="M7.61182 13.5466V15.1727H12.3846V25.7793C12.3846 27.2684 13.487 27.9477 14.5668 27.9477C15.6466 27.9477 16.3315 27.6015 16.3315 27.6015C16.3315 27.6015 15.673 27.0884 15.6701 24.8077C15.6674 22.5958 15.6699 15.621 15.6701 14.6372C15.6704 13.6534 14.479 11.8821 12.5184 11.8821H9.48844C8.49536 11.8821 7.61182 12.6606 7.61182 13.5466ZM14.6212 11.8821C14.6063 11.882 14.5916 11.8848 14.5779 11.8903C14.5642 11.8957 14.5517 11.9038 14.5412 11.9139C14.5308 11.924 14.5224 11.936 14.5168 11.9492C14.5111 11.9624 14.5082 11.9765 14.5083 11.9908C14.5083 12.0511 14.5711 12.0958 14.6212 12.1318C14.8291 12.2811 15.4769 12.7232 15.7863 13.328C16.0956 13.9328 16.103 14.4817 16.304 14.7988C16.505 15.1159 16.8331 15.1727 17.18 15.1727H19.6745C20.2256 15.1727 20.4422 14.8161 20.4422 14.3932V11.8821H14.6212Z" fill="white"/>
<defs>
<radialGradient id="paint0_radial_1200_2795" cx="0" cy="0" r="1" gradientUnits="userSpaceOnUse" gradientTransform="translate(4.11916 28.1072) rotate(-27.2897) scale(25.0617 20.887)">
<stop stop-color="#FFCC00"/>
<stop offset="0.604" stop-color="#FF0015"/>
<stop offset="1" stop-color="#C6000F"/>
</radialGradient>
</defs>
</svg>
