<svg width="42" height="42" viewBox="0 0 42 42" fill="none" xmlns="http://www.w3.org/2000/svg">
<path d="M0 18.6667V0H18.6667V18.6667H0ZM4.66667 14H14V4.66667H4.66667V14ZM0 42V23.3333H18.6667V42H0ZM4.66667 37.3333H14V28H4.66667V37.3333ZM23.3333 18.6667V0H42V18.6667H23.3333ZM28 14H37.3333V4.66667H28V14ZM37.3333 42V37.3333H42V42H37.3333ZM23.3333 28V23.3333H28V28H23.3333ZM28 32.6667V28H32.6667V32.6667H28ZM23.3333 37.3333V32.6667H28V37.3333H23.3333ZM28 42V37.3333H32.6667V42H28ZM32.6667 37.3333V32.6667H37.3333V37.3333H32.6667ZM32.6667 28V23.3333H37.3333V28H32.6667ZM37.3333 32.6667V28H42V32.6667H37.3333Z" fill="white"/>
</svg>
