<svg width="24" height="24" viewBox="0 0 24 24" fill="none" xmlns="http://www.w3.org/2000/svg">
<path d="M16.9438 7.56224C17.2394 7.56224 17.479 7.32265 17.479 7.0271C17.479 6.73155 17.2394 6.49196 16.9438 6.49196C16.6483 6.49196 16.4087 6.73155 16.4087 7.0271C16.4087 7.32265 16.6483 7.56224 16.9438 7.56224Z" fill="#0E3344"/>
<path d="M2.05199 17.6377C1.65053 18.0391 1.42493 18.5834 1.4248 19.1511V21.4757C1.4248 21.7596 1.53757 22.0318 1.73828 22.2326C1.939 22.4333 2.21123 22.546 2.49508 22.546H5.70591C5.98977 22.546 6.262 22.4333 6.46271 22.2326C6.66343 22.0318 6.77619 21.7596 6.77619 21.4757V20.4055C6.77619 20.1216 6.88895 19.8494 7.08967 19.6487C7.29038 19.448 7.56261 19.3352 7.84647 19.3352H8.91675C9.2006 19.3352 9.47283 19.2224 9.67355 19.0217C9.87426 18.821 9.98702 18.5488 9.98702 18.2649V17.1946C9.98702 16.9108 10.0998 16.6386 10.3005 16.4378C10.5012 16.2371 10.7734 16.1244 11.0573 16.1244H11.2414C11.8091 16.1242 12.3534 15.8986 12.7548 15.4972L13.626 14.626C15.1135 15.1441 16.7328 15.1422 18.219 14.6204C19.7053 14.0986 20.9704 13.0878 21.8075 11.7535C22.6447 10.4192 23.0042 8.84024 22.8273 7.27503C22.6503 5.70982 21.9475 4.25098 20.8337 3.13716C19.7199 2.02334 18.261 1.32049 16.6958 1.14357C15.1306 0.966664 13.5517 1.32617 12.2173 2.16328C10.883 3.0004 9.87228 4.26556 9.35047 5.75179C8.82867 7.23803 8.82669 8.85736 9.34486 10.3449L2.05199 17.6377Z" stroke="#00B1FF" stroke-width="2" stroke-linecap="round" stroke-linejoin="round"/>
<path d="M16.9438 7.56224C17.2394 7.56224 17.479 7.32265 17.479 7.0271C17.479 6.73155 17.2394 6.49196 16.9438 6.49196C16.6483 6.49196 16.4087 6.73155 16.4087 7.0271C16.4087 7.32265 16.6483 7.56224 16.9438 7.56224Z" stroke="#00B1FF" stroke-width="2" stroke-linecap="round" stroke-linejoin="round"/>
</svg>
