<svg width="23" height="24" viewBox="0 0 23 24" fill="none" xmlns="http://www.w3.org/2000/svg">
<path d="M11.5002 22.8334C17.2531 22.8334 21.9168 17.9831 21.9168 12C21.9168 6.01694 17.2531 1.16669 11.5002 1.16669C5.7472 1.16669 1.0835 6.01694 1.0835 12C1.0835 17.9831 5.7472 22.8334 11.5002 22.8334Z" fill="#F2FBFF"/>
<path d="M11.5002 16.3334V12Z" fill="#F2FBFF"/>
<path d="M11.5002 7.66669H11.5106Z" fill="#F2FBFF"/>
<path d="M11.5002 16.3334V12M11.5002 7.66669H11.5106M21.9168 12C21.9168 17.9831 17.2531 22.8334 11.5002 22.8334C5.7472 22.8334 1.0835 17.9831 1.0835 12C1.0835 6.01694 5.7472 1.16669 11.5002 1.16669C17.2531 1.16669 21.9168 6.01694 21.9168 12Z" stroke="#00B1FF" stroke-width="2" stroke-linecap="round" stroke-linejoin="round"/>
</svg>
