<svg width="44" height="27" viewBox="0 0 44 27" fill="none" xmlns="http://www.w3.org/2000/svg">
<path d="M7.41057 22.9584C7.98523 22.9584 8.45268 22.8847 8.81292 22.7373C9.18173 22.5899 9.46906 22.3992 9.67491 22.165C9.88076 21.9309 10.0223 21.6664 10.0995 21.3716C10.1767 21.0768 10.2153 20.7777 10.2153 20.4742C10.2153 20.1273 10.1681 19.8152 10.0737 19.5377C9.98798 19.2602 9.83359 19.0261 9.61059 18.8353C9.39616 18.6446 9.10883 18.4972 8.74859 18.3931C8.38836 18.2891 7.93377 18.237 7.38484 18.237H4.34856V22.9584H7.41057ZM4.34856 10.6151V15.2975H6.61291C7.09322 15.2975 7.52636 15.2628 7.91233 15.1935C8.2983 15.1241 8.62422 15.0027 8.89011 14.8293C9.16458 14.6559 9.37043 14.4174 9.50766 14.1139C9.65347 13.8104 9.72638 13.4289 9.72638 12.9693C9.72638 12.5184 9.67063 12.1456 9.55912 11.8508C9.44762 11.5473 9.27608 11.3045 9.0445 11.1224C8.81292 10.9403 8.51701 10.8102 8.15678 10.7322C7.80512 10.6542 7.38484 10.6151 6.89595 10.6151H4.34856ZM6.89595 7.32446C8.19108 7.32446 9.29323 7.44585 10.2024 7.68864C11.1116 7.93143 11.8535 8.27395 12.4281 8.71618C13.0028 9.1584 13.4188 9.696 13.6761 10.329C13.942 10.962 14.0749 11.6687 14.0749 12.4491C14.0749 12.874 14.0149 13.2858 13.8948 13.6847C13.7747 14.0749 13.586 14.4434 13.3287 14.7903C13.0714 15.1284 12.7412 15.4406 12.3381 15.7267C11.935 16.0129 11.4504 16.26 10.8843 16.4681C12.1194 16.7716 13.0328 17.2615 13.6246 17.9379C14.2165 18.6142 14.5124 19.49 14.5124 20.5652C14.5124 21.3716 14.358 22.1217 14.0492 22.8154C13.7404 23.509 13.2859 24.116 12.6855 24.6363C12.0936 25.1479 11.3603 25.5511 10.4854 25.8459C9.61059 26.1321 8.61136 26.2751 7.48777 26.2751H0V7.32446H6.89595Z" fill="#00A39D"/>
<path d="M27.8707 11.1899C27.742 11.3978 27.6048 11.5537 27.459 11.6576C27.3217 11.7616 27.1416 11.8135 26.9186 11.8135C26.7213 11.8135 26.5069 11.7529 26.2753 11.6316C26.0523 11.5017 25.795 11.3588 25.5034 11.2029C25.2203 11.047 24.8944 10.9084 24.5256 10.7872C24.1568 10.6573 23.7365 10.5923 23.2648 10.5923C22.45 10.5923 21.841 10.7698 21.4379 11.125C21.0433 11.4714 20.8461 11.9434 20.8461 12.5411C20.8461 12.9222 20.9661 13.2383 21.2063 13.4895C21.4464 13.7406 21.7595 13.9572 22.1455 14.139C22.54 14.3209 22.986 14.4898 23.4835 14.6457C23.9895 14.793 24.5042 14.9619 25.0274 15.1524C25.5506 15.3343 26.0609 15.5508 26.5584 15.802C27.0644 16.0532 27.5104 16.3736 27.8964 16.7634C28.2909 17.1532 28.6083 17.6295 28.8484 18.1925C29.0886 18.7468 29.2087 19.418 29.2087 20.2062C29.2087 21.081 29.0586 21.8995 28.7584 22.6617C28.4582 23.4238 28.0208 24.0908 27.4461 24.6624C26.88 25.2254 26.1767 25.6714 25.3361 26.0005C24.5042 26.321 23.5564 26.4812 22.4928 26.4812C21.9096 26.4812 21.3135 26.4206 20.7045 26.2994C20.1041 26.1781 19.5209 26.0092 18.9548 25.7927C18.3887 25.5675 17.857 25.3033 17.3595 25.0002C16.862 24.697 16.4289 24.3593 16.0601 23.9868L17.3466 21.9341C17.4495 21.7869 17.5825 21.6656 17.7454 21.5703C17.917 21.4664 18.1014 21.4144 18.2987 21.4144C18.556 21.4144 18.8133 21.4967 19.0706 21.6613C19.3365 21.8259 19.6324 22.0077 19.9583 22.2069C20.2928 22.4062 20.6745 22.588 21.1034 22.7526C21.5322 22.9172 22.0383 22.9994 22.6215 22.9994C23.4106 22.9994 24.0239 22.8262 24.4613 22.4798C24.8987 22.1247 25.1174 21.566 25.1174 20.8038C25.1174 20.3621 24.9973 20.0027 24.7572 19.7255C24.517 19.4484 24.1997 19.2188 23.8051 19.0369C23.4192 18.8551 22.9775 18.6948 22.48 18.5563C21.9825 18.4177 21.4722 18.2661 20.949 18.1015C20.4258 17.9283 19.9154 17.7204 19.418 17.4779C18.9205 17.2268 18.4745 16.902 18.08 16.5036C17.694 16.0965 17.3809 15.5941 17.1408 14.9965C16.9006 14.3902 16.7805 13.6454 16.7805 12.7619C16.7805 12.0517 16.9221 11.3588 17.2051 10.6832C17.4881 10.0077 17.9041 9.40571 18.4531 8.87738C19.002 8.34904 19.6753 7.92897 20.473 7.61717C21.2706 7.29671 22.1841 7.13647 23.2133 7.13647C23.788 7.13647 24.3455 7.18411 24.8858 7.27938C25.4348 7.36599 25.9537 7.50025 26.4426 7.68214C26.9315 7.85536 27.3861 8.06755 27.8063 8.31874C28.2352 8.56124 28.6169 8.8384 28.9514 9.15021L27.8707 11.1899Z" fill="#00A39D"/>
<path fill-rule="evenodd" clip-rule="evenodd" d="M43.413 6.54079C40.0741 6.21555 38.9001 8.05404 38.2451 8.96339C37.4098 5.32794 35.9972 5.6146 34.4858 4.69879C36.6701 3.43095 37.2811 1.45986 37.221 0C39.3605 1.56867 40.8524 1.40035 42.6999 0.891686C41.7806 3.63504 42.361 4.40936 43.413 6.54079Z" fill="#F8AD3C"/>
<path d="M36.4298 26.2829H31.9077V6.90332C34.7375 7.28671 36.4342 9.62716 36.4298 12.1043V26.2829Z" fill="#00A39D"/>
</svg>
