<svg width="37" height="37" viewBox="0 0 37 37" fill="none" xmlns="http://www.w3.org/2000/svg">
<path d="M18.39 36.78C28.5465 36.78 36.78 28.5465 36.78 18.39C36.78 8.23348 28.5465 0 18.39 0C8.23348 0 0 8.23348 0 18.39C0 28.5465 8.23348 36.78 18.39 36.78Z" fill="#008CEB"/>
<path d="M29.1054 18.4674V23.6433C29.1054 23.9801 28.9606 24.0508 28.6777 23.8858C28.2993 23.6587 27.9055 23.4584 27.4991 23.2864C26.2717 22.7974 24.9423 22.6204 23.6298 22.7711C22.1972 22.957 20.7913 23.3096 19.4406 23.8218C18.0936 24.2764 16.7735 24.7681 15.3996 25.1486C14.2616 25.4865 13.0773 25.6422 11.8906 25.6099C10.5755 25.5589 9.29741 25.1604 8.18638 24.4549C8.04678 24.3708 7.93225 24.2509 7.85467 24.1076C7.77709 23.9643 7.73931 23.8028 7.74523 23.6399C7.74523 20.25 7.74523 16.86 7.74523 13.4701C7.74523 13.305 7.74523 13.1097 7.8934 13.0255C8.04157 12.9414 8.19311 13.0794 8.32108 13.1636C9.52755 13.9794 10.9565 14.4028 12.4126 14.3759C13.4538 14.3332 14.4835 14.1416 15.4703 13.8068C16.8712 13.3724 18.2249 12.7965 19.6023 12.3083C20.6744 11.8962 21.7737 11.5587 22.8923 11.298C23.8524 11.0732 24.8485 11.0496 25.8181 11.2287C26.7878 11.4077 27.7098 11.7856 28.5262 12.3386C28.7133 12.4532 28.8666 12.6157 28.9702 12.8092C29.0737 13.0028 29.1239 13.2204 29.1155 13.4397C29.1155 15.1235 29.1155 16.8073 29.1155 18.491L29.1054 18.4674Z" fill="#FEFEFE"/>
</svg>
