<svg width="28" height="28" viewBox="0 0 28 28" fill="none" xmlns="http://www.w3.org/2000/svg">
<path d="M14.0001 0.666748C6.65341 0.666748 0.666748 6.65341 0.666748 14.0001C0.666748 21.3467 6.65341 27.3334 14.0001 27.3334C21.3467 27.3334 27.3334 21.3467 27.3334 14.0001C27.3334 6.65341 21.3467 0.666748 14.0001 0.666748ZM20.3734 10.9334L12.8134 18.4934C12.6267 18.6801 12.3734 18.7867 12.1067 18.7867C11.8401 18.7867 11.5867 18.6801 11.4001 18.4934L7.62675 14.7201C7.24008 14.3334 7.24008 13.6934 7.62675 13.3067C8.01341 12.9201 8.65341 12.9201 9.04008 13.3067L12.1067 16.3734L18.9601 9.52008C19.3467 9.13341 19.9867 9.13341 20.3734 9.52008C20.7601 9.90675 20.7601 10.5334 20.3734 10.9334Z" fill="#00B1FF"/>
</svg>
