<svg width="38" height="38" viewBox="0 0 38 38" fill="none" xmlns="http://www.w3.org/2000/svg">
<path d="M19 38C8.50659 38 0 29.4934 0 19C0 8.50659 8.50659 0 19 0C29.4934 0 38 8.50659 38 19C38 29.4934 29.4934 38 19 38Z" fill="#00AED6"/>
<path fill-rule="evenodd" clip-rule="evenodd" d="M7.9128 18.441C8.06927 16.0716 10.1257 14.1716 12.5175 14.3281H24.5434C25.0128 14.3281 25.3257 14.0151 25.3257 13.5457C25.3257 13.0763 25.0128 12.7634 24.5434 12.7634H12.361C12.4504 11.1763 13.6351 9.52218 15.1328 9.2763C18.6869 8.65041 22.3304 8.65041 25.8175 9.2763C27.8069 9.58924 29.3046 11.5786 29.6175 13.4786C30.1763 17.2116 30.1763 20.9892 29.6175 24.7222C29.2152 26.8681 27.4716 28.6116 25.2587 28.9245C20.8328 29.4834 16.3846 29.4834 12.0257 28.9245C10.0363 28.6786 8.78456 26.8681 8.38221 24.9681C8.00221 22.7328 7.84574 20.5869 7.9128 18.441ZM11.8693 21.0563V21.7716C11.8693 22.241 12.1822 22.5539 12.6516 22.5539C13.121 22.5539 13.434 22.241 13.434 21.7716V21.0563C13.6799 20.8104 13.8363 20.4975 13.8363 20.1845C13.8363 19.5586 13.2775 18.9998 12.6516 18.9998C12.0257 18.9998 11.4669 19.5586 11.4669 20.1845C11.4893 20.4975 11.6457 20.8328 11.8693 21.0563Z" fill="white"/>
</svg>
