<svg width="37" height="34" viewBox="0 0 37 34" fill="none" xmlns="http://www.w3.org/2000/svg">
<path fill-rule="evenodd" clip-rule="evenodd" d="M4.31995 6.29098H33.1124C35.0276 6.29098 36.595 7.85836 36.595 9.77356V29.9219C36.595 31.8371 35.0276 33.4045 33.1124 33.4045H3.48258C1.56738 33.4045 0 31.8371 0 29.9219V5.03278C0 4.12671 0.747188 3.49976 1.64467 3.38811L28.1956 0C29.1017 0 29.8403 0.738599 29.8403 1.64467V4.46166H2.6581C2.6581 5.64256 3.01022 6.29098 4.31565 6.29098H4.31995ZM20.4661 28.3674C18.0442 28.8311 14.9309 28.0238 13.239 26.2031C12.4746 25.3829 13.707 24.1419 14.4757 24.9707C15.6136 26.1988 17.6448 26.7699 19.3024 26.7313C21.4151 26.6841 23.2916 24.7646 22.0936 22.6175C20.4317 19.6459 16.3437 20.479 14.2395 18.1429C12.539 16.2578 13.3463 13.2948 15.3431 11.9851C17.4258 10.6152 21.02 10.6668 22.7334 12.6335C23.472 13.4751 22.2353 14.7162 21.4967 13.8659C20.114 12.2814 16.8461 12.4961 15.5965 14.1279C13.823 16.4596 16.4768 17.7135 18.3319 18.276C20.8826 19.049 23.7125 20.4618 24.1762 23.3861C24.5455 25.7393 22.7248 27.9337 20.4661 28.3674Z" fill="#EE4E2C"/>
<path fill-rule="evenodd" clip-rule="evenodd" d="M20.4659 28.3673C18.044 28.8311 14.9307 28.0238 13.2388 26.2031C12.4744 25.3829 13.7069 24.1419 14.4755 24.9706C15.6135 26.1988 17.6446 26.7699 19.3022 26.7313C21.4149 26.684 23.2915 24.7645 22.0934 22.6174C20.4359 19.6459 16.3435 20.4789 14.2393 18.1472C12.5389 16.262 13.3462 13.2991 15.343 11.985C17.4256 10.6152 21.0199 10.6667 22.7332 12.6335C23.4718 13.4751 22.2351 14.7161 21.4965 13.8659C20.1138 12.2813 16.8459 12.496 15.6006 14.1278C13.8271 16.4596 16.4809 17.7135 18.336 18.276C20.8867 19.049 23.7166 20.4618 24.1804 23.3861C24.5497 25.7393 22.7289 27.9336 20.4702 28.3673H20.4659Z" fill="#FEFEFE"/>
</svg>
