<svg width="39" height="29" viewBox="0 0 39 29" fill="none" xmlns="http://www.w3.org/2000/svg">
<path d="M23.4195 0.308831C23.7696 0.100912 24.1974 -0.0785133 24.6178 0.0354567C24.991 0.167138 25.12 0.573734 25.1109 0.914104C25.1126 5.16026 25.1118 9.40641 25.1109 13.6526C29.4272 13.6526 33.7434 13.6502 38.0596 13.6533C38.4038 13.6518 38.8184 13.7596 38.9541 14.0876C39.0964 14.4773 38.8804 14.8739 38.6901 15.2135C37.5598 17.1494 36.3789 19.06 35.1807 20.9597C34.8249 21.401 34.3557 21.8122 33.7641 21.9454C33.2717 22.0555 32.762 22.0517 32.2597 22.0586C30.8273 22.0632 29.3957 22.0602 27.9633 22.0609C27.3402 22.0586 26.6393 22.0856 26.1478 22.4899C25.739 22.8533 25.7895 23.4409 25.9492 23.9014C26.2976 24.8848 26.962 25.7311 27.4536 26.6513C26.9472 26.3356 26.4573 25.9967 25.9897 25.6333C24.535 24.4358 23.2036 23.1059 22.0782 21.6305C18.7028 17.2773 16.9568 11.9507 16.6391 6.6203C16.5836 5.45134 17.0975 4.17226 18.2212 3.55852C19.9548 2.4758 21.6876 1.39309 23.4195 0.308831Z" fill="#00C89F"/>
<path d="M0.0518025 8.82281C0.230541 8.47397 0.681526 8.36616 1.063 8.37232C3.68368 8.37309 6.30435 8.37232 8.92503 8.37309C9.37932 8.38156 9.85761 8.3985 10.2664 8.60488C10.6826 8.81434 10.9962 9.1524 11.3148 9.46889C12.2714 10.4815 13.2255 11.4957 14.1813 12.5083C14.2359 12.5615 14.3335 12.6801 14.4097 12.5777C14.9359 12.0471 15.4341 11.4919 15.9571 10.9574C16.394 13.5479 17.4706 16.0222 18.9261 18.2584C20.7805 21.0846 23.2175 23.565 25.9896 25.6334C26.4571 25.9968 26.947 26.3357 27.4535 26.6514C27.7696 26.9725 28.0716 27.3067 28.3753 27.6379C28.6037 27.8843 28.7592 28.2408 28.6161 28.5589C28.4597 28.8746 28.06 29.0032 27.7091 28.9986C25.062 29.0009 22.4148 28.9986 19.7685 29.0001C19.3241 29.0001 18.8583 28.9886 18.4528 28.7991C18.0275 28.5943 17.7006 28.2593 17.3804 27.9359C16.4395 26.9386 15.4978 25.9414 14.5594 24.9419C14.4883 24.8625 14.4022 24.7971 14.3104 24.7409C13.3124 25.7805 12.3351 26.8378 11.3405 27.8804C11.0144 28.2177 10.6801 28.5658 10.2465 28.786C9.84272 28.9832 9.37601 29.0001 8.93082 29.0001C6.28118 28.9986 3.63154 29.0009 0.982734 28.9993C0.602086 29.0094 0.149447 28.8584 0.0294601 28.4896C-0.0863891 28.113 0.159377 27.7634 0.41921 27.4985C3.16732 24.5576 5.91957 21.6198 8.68257 18.6912C5.91543 15.7257 3.12098 12.7825 0.358803 9.81311C0.100625 9.55283 -0.096319 9.17704 0.0518025 8.82281Z" fill="#002CBA"/>
</svg>
