<svg width="220" height="220" viewBox="0 0 220 220" fill="none" xmlns="http://www.w3.org/2000/svg">
<path d="M76.9266 127.123C77.5634 126.483 78.0678 125.723 78.411 124.888C78.7543 124.053 78.9296 123.158 78.9271 122.255C78.9245 121.352 78.7441 120.458 78.3962 119.624C78.0482 118.791 77.5395 118.034 76.8991 117.397C76.2587 116.761 75.4991 116.256 74.6637 115.913C73.8284 115.57 72.9336 115.394 72.0305 115.397C71.1273 115.399 70.2335 115.58 69.4001 115.928C68.5667 116.276 67.81 116.785 67.1732 117.425L76.9266 127.123ZM129.085 156.631L122.393 155.036V155.082L129.085 156.631ZM83.7649 88.9166C83.5181 89.7851 83.4448 90.6938 83.5492 91.5906C83.6536 92.4875 83.9336 93.355 84.3732 94.1436C84.8129 94.9323 85.4036 95.6266 86.1115 96.187C86.8195 96.7473 87.631 97.1628 88.4995 97.4095C89.368 97.6563 90.2766 97.7296 91.1735 97.6252C92.0704 97.5208 92.9379 97.2408 93.7265 96.8012C94.5151 96.3615 95.2095 95.7709 95.7698 95.0629C96.3302 94.3549 96.7456 93.5435 96.9924 92.6749L83.7649 88.9166ZM143.302 37.9408L163.029 49.8208L170.124 38.0416L150.397 26.1616L143.302 37.9408ZM79.7774 184.882L73.6816 181.216L66.5866 192.995L72.6824 196.671L79.7774 184.882ZM122.008 156.741L119.735 166.787L133.146 169.822L135.419 159.793L122.008 156.741ZM68.5024 135.401L75.6982 128.333L66.0549 118.534L58.8682 125.602L68.5024 135.401ZM122.082 51.8833L149.875 38.2158L143.816 25.8775L116.022 39.5358L122.082 51.8833ZM159.72 44.4766L162.287 76.4225L175.982 75.3225L173.424 43.3858L159.72 44.4766ZM152.863 35.3741L156.768 28.3158L144.742 21.6516L140.827 28.7191L152.863 35.3741ZM157.41 28.1325L164.56 32.45L171.655 20.6708L164.505 16.3625L157.41 28.1325ZM164.725 33.0641L160.554 40.5991L172.59 47.2633L176.761 39.7191L164.725 33.0641ZM162.277 76.4225L162.406 78.0358L176.128 77.1741L175.982 75.3408L162.277 76.4225ZM156.832 123.402C157.456 122.852 157.832 122.531 158.18 122.21L148.922 112.035L147.748 113.08L156.832 123.402ZM162.406 78.0358C163.231 91.0433 158.189 103.592 148.922 112.035L158.18 122.21C170.628 110.862 177.21 94.215 176.128 77.1741L162.406 78.0358ZM99.0824 83.27L99.3574 81.6841L85.8549 79.1358C85.7632 79.6125 85.6716 80.1075 85.5341 80.9416L99.0824 83.27ZM116.022 39.5358C115.289 39.8933 114.84 40.1133 114.418 40.3333L120.697 52.5708L122.082 51.8833L116.022 39.5358ZM99.3666 81.6933C101.768 68.9425 109.707 58.2175 120.697 52.5708L114.418 40.3333C99.5132 47.9875 89.0082 62.37 85.8549 79.1358L99.3666 81.6933ZM75.6982 128.333L76.9266 127.114L67.1732 117.416L66.0549 118.534L75.6982 128.333ZM85.5249 80.9416L85.2499 82.5366L98.7707 85.0116C98.8624 84.5533 98.9357 84.095 99.0732 83.27L85.5249 80.9416ZM135.41 159.784L135.657 158.684L135.749 158.317L135.767 158.217V158.18L129.076 156.622L122.384 155.063V155.082L122.375 155.109L122.347 155.21L122.256 155.595L121.999 156.75L135.41 159.784ZM147.748 113.08L146.447 114.226L155.65 124.437L156.832 123.402L147.748 113.08ZM73.6724 181.216C67.8882 177.732 63.8641 175.303 60.8849 173.204C57.9332 171.132 56.5582 169.748 55.7607 168.566L44.3666 176.266C46.5299 179.474 49.4816 181.995 52.9741 184.452C56.4391 186.89 60.9766 189.612 66.5866 192.995L73.6724 181.216ZM58.8682 125.602C54.1657 130.222 50.3616 133.943 47.5474 137.133C44.7057 140.342 42.4141 143.495 41.0391 147.107L53.8816 152.002C54.3949 150.645 55.4399 148.958 57.8507 146.236C60.2707 143.486 63.6624 140.167 68.5024 135.401L58.8682 125.602ZM55.7607 168.566C54.1523 166.152 53.1428 163.398 52.816 160.516C52.4892 157.633 52.8545 154.715 53.8816 152.002L41.0299 147.107C39.2203 151.879 38.579 157.016 39.1595 162.087C39.7399 167.158 41.5253 172.025 44.3666 176.266L55.7607 168.566ZM72.6732 196.662C78.2832 200.053 82.8024 202.776 86.5699 204.692C90.3466 206.617 93.9674 208.047 97.7991 208.404L99.0824 194.718C97.7991 194.599 96.0116 194.077 92.8032 192.436C89.5949 190.795 85.5616 188.375 79.7682 184.882L72.6732 196.662ZM119.726 166.778C118.195 173.534 117.113 178.264 116.05 181.848C114.977 185.414 114.097 187.211 113.245 188.329L124.199 196.634C126.527 193.563 127.985 189.933 129.222 185.781C130.451 181.656 131.652 176.385 133.146 169.822L119.726 166.778ZM97.7991 208.404C102.839 208.862 107.911 208.02 112.533 205.96C117.155 203.899 121.171 200.688 124.199 196.634L113.236 188.329C111.623 190.517 109.475 192.253 106.999 193.372C104.522 194.491 101.799 194.955 99.0916 194.718L97.7991 208.404ZM164.56 32.45L165.871 33.2475C166.207 33.4613 166.436 33.6141 166.558 33.7058C166.824 33.8891 166.448 33.6783 166.082 33.0916L177.668 25.685C176.844 24.4506 175.796 23.3812 174.579 22.5316C173.699 21.89 172.627 21.2483 171.655 20.6708L164.56 32.45ZM176.752 39.7191C177.302 38.7291 177.907 37.6383 178.356 36.6483C178.842 35.585 179.373 34.1366 179.456 32.3766L165.715 31.7533C165.752 31.0566 165.962 30.69 165.834 30.9833L165.458 31.7166L164.725 33.0641L176.752 39.7191ZM166.082 33.0916C165.827 32.6931 165.693 32.2256 165.715 31.7533L179.456 32.3766C179.564 30.0151 178.94 27.6777 177.668 25.685L166.082 33.0916ZM156.759 28.3066L157.566 26.8766C157.786 26.4825 157.932 26.2533 158.024 26.1066C158.226 25.8041 158.024 26.2075 157.401 26.62L149.829 15.1433C148.271 16.17 147.262 17.4625 146.584 18.48C145.952 19.4241 145.319 20.5883 144.732 21.6516L156.759 28.3066ZM164.505 16.3625C163.469 15.7391 162.323 15.0425 161.297 14.5383C159.904 13.8239 158.384 13.3909 156.823 13.2641L155.998 26.9958C155.265 26.95 154.88 26.7025 155.201 26.8675C155.347 26.9286 155.607 27.0722 155.98 27.2983C156.374 27.5183 156.814 27.7933 157.401 28.1416L164.505 16.3625ZM157.401 26.62C156.985 26.8907 156.493 27.0285 155.998 26.9958L156.823 13.2641C154.35 13.1179 151.896 13.7772 149.829 15.1433L157.401 26.62ZM96.9924 92.6841C97.7074 90.1663 98.3002 87.6058 98.7707 85.0025L85.2499 82.5366C84.8611 84.6904 84.3716 86.8138 83.7649 88.9166L96.9924 92.6841ZM135.767 158.217C137.234 152.075 139.526 146.236 142.551 140.864L130.552 134.127C126.872 140.679 124.126 147.723 122.393 155.036L135.767 158.217ZM142.551 140.864C145.985 134.706 150.411 129.156 155.65 124.437L146.447 114.226C140.105 119.951 134.737 126.669 130.552 134.117L142.551 140.864Z" fill="#00B1FF"/>
<path d="M162.232 84.9471L154.88 87.4038C146.905 90.0621 138.114 88.4947 131.551 83.2422C127.855 80.2793 123.387 78.4392 118.676 77.9404C113.966 77.4415 109.211 78.3049 104.977 80.428L98.3215 83.7555" stroke="#00B1FF" stroke-width="1.5" stroke-linecap="square"/>
</svg>
