<svg width="8" height="12" viewBox="0 0 8 12" fill="none" xmlns="http://www.w3.org/2000/svg">
<path d="M4 5.97891C3.62112 5.97891 3.25776 5.83404 2.98985 5.57618C2.72194 5.31832 2.57143 4.96858 2.57143 4.60391C2.57143 4.23923 2.72194 3.8895 2.98985 3.63163C3.25776 3.37377 3.62112 3.22891 4 3.22891C4.37888 3.22891 4.74224 3.37377 5.01015 3.63163C5.27806 3.8895 5.42857 4.23923 5.42857 4.60391C5.42857 4.78447 5.39162 4.96327 5.31983 5.1301C5.24804 5.29692 5.14281 5.4485 5.01015 5.57618C4.8775 5.70386 4.72001 5.80514 4.54669 5.87424C4.37337 5.94334 4.1876 5.97891 4 5.97891ZM4 0.753906C2.93913 0.753906 1.92172 1.15953 1.17157 1.88155C0.421427 2.60356 0 3.58282 0 4.60391C0 7.49141 4 11.7539 4 11.7539C4 11.7539 8 7.49141 8 4.60391C8 3.58282 7.57857 2.60356 6.82843 1.88155C6.07828 1.15953 5.06087 0.753906 4 0.753906Z" fill="#00B1FF"/>
</svg>
