<svg width="8" height="13" viewBox="0 0 8 13" fill="none" xmlns="http://www.w3.org/2000/svg">
<path d="M-4.04866e-07 3.42057C-2.88448e-05 2.91043 0.194883 2.41956 0.544855 2.0484C0.894828 1.67724 1.3734 1.45383 1.88267 1.42391L2 1.42057L2.05733 1.42057L2.07 1.38591C2.13773 1.21478 2.25136 1.06567 2.39839 0.954981C2.54543 0.844294 2.72015 0.776331 2.90333 0.758572L3 0.753906L5 0.753906C5.20051 0.753871 5.3964 0.814113 5.56224 0.926813C5.72808 1.03951 5.85621 1.19947 5.93 1.38591L5.942 1.42057L6 1.42057C6.51014 1.42054 7.00101 1.61546 7.37217 1.96543C7.74334 2.3154 7.96674 2.79398 7.99667 3.30324L8 3.42057L8 10.7539C8.00003 11.264 7.80512 11.7549 7.45514 12.1261C7.10517 12.4972 6.6266 12.7206 6.11733 12.7506L6 12.7539L2 12.7539C1.48986 12.7539 0.99899 12.559 0.627826 12.2091C0.256662 11.8591 0.0332616 11.3805 0.00333333 10.8712L-8.43158e-08 10.7539L-4.04866e-07 3.42057ZM2 10.0872C2 10.2641 2.07024 10.4336 2.19526 10.5586C2.32029 10.6837 2.48986 10.7539 2.66667 10.7539L5.33333 10.7539L5.41133 10.7492C5.58006 10.7292 5.73476 10.6454 5.84382 10.5151C5.95288 10.3848 6.00807 10.2178 5.99811 10.0482C5.98816 9.87854 5.9138 9.71912 5.79025 9.60247C5.66669 9.48583 5.50325 9.42076 5.33333 9.42057L2.66667 9.42057L2.58867 9.42524C2.4265 9.44434 2.27698 9.5223 2.16848 9.64432C2.05997 9.76635 2.00002 9.92395 2 10.0872Z" fill="#678C30"/>
</svg>
