<svg width="179" height="179" viewBox="0 0 179 179" fill="none" xmlns="http://www.w3.org/2000/svg">
<path d="M62.589 103.432C63.1071 102.911 63.5175 102.293 63.7968 101.613C64.0761 100.933 64.2188 100.205 64.2167 99.4703C64.2146 98.7355 64.0678 98.0083 63.7847 97.3302C63.5016 96.6521 63.0877 96.0364 62.5666 95.5183C62.0455 95.0002 61.4275 94.5898 60.7478 94.3105C60.0682 94.0312 59.3401 93.8885 58.6053 93.8906C57.8705 93.8927 57.1433 94.0395 56.4652 94.3226C55.7871 94.6057 55.1714 95.0196 54.6533 95.5407L62.589 103.432ZM105.027 127.44L99.5823 126.142V126.18L105.027 127.44ZM68.1529 72.3453C67.9521 73.0519 67.8925 73.7912 67.9774 74.5209C68.0623 75.2507 68.2902 75.9565 68.6479 76.5982C69.0056 77.2398 69.4862 77.8048 70.0622 78.2607C70.6382 78.7166 71.2985 79.0546 72.0051 79.2554C72.7118 79.4562 73.4511 79.5158 74.1808 79.4309C74.9105 79.346 75.6164 79.1182 76.258 78.7604C76.8997 78.4027 77.4646 77.9221 77.9205 77.3461C78.3765 76.7701 78.7145 76.1098 78.9153 75.4032L68.1529 72.3453ZM116.595 30.8695L132.645 40.5355L138.418 30.9515L122.368 21.2855L116.595 30.8695ZM64.9085 150.427L59.9487 147.443L54.176 157.027L59.1358 160.018L64.9085 150.427ZM99.2691 127.529L97.4194 135.704L108.331 138.173L110.181 130.013L99.2691 127.529ZM55.7348 110.166L61.5896 104.416L53.7434 96.4431L47.8961 102.194L55.7348 110.166ZM99.3287 42.2136L121.942 31.0932L117.012 21.0543L94.3988 32.1672L99.3287 42.2136ZM129.953 36.1873L132.041 62.1796L143.184 61.2846L141.103 35.2997L129.953 36.1873ZM124.374 28.7811L127.551 23.0382L117.766 17.616L114.581 23.3664L124.374 28.7811ZM128.073 22.8891L133.891 26.4019L139.663 16.818L133.846 13.3126L128.073 22.8891ZM134.025 26.9017L130.631 33.0324L140.424 38.4546L143.818 32.3164L134.025 26.9017ZM132.034 62.1796L132.138 63.4922L143.303 62.7911L143.184 61.2995L132.034 62.1796ZM127.603 100.404C128.11 99.956 128.416 99.695 128.7 99.4339L121.167 91.1552L120.212 92.0054L127.603 100.404ZM132.138 63.4922C132.809 74.0756 128.707 84.2861 121.167 91.1552L128.7 99.4339C138.828 90.2005 144.183 76.6562 143.303 62.7911L132.138 63.4922ZM80.6158 67.7509L80.8395 66.4607L69.8534 64.3872C69.7788 64.7751 69.7042 65.1778 69.5924 65.8565L80.6158 67.7509ZM94.3988 32.1672C93.8021 32.4581 93.4366 32.6371 93.0936 32.8161L98.2025 42.773L99.3287 42.2136L94.3988 32.1672ZM80.847 66.4681C82.8011 56.0936 89.26 47.3673 98.2025 42.773L93.0936 32.8161C80.9663 39.0438 72.4191 50.7459 69.8534 64.3872L80.847 66.4681ZM61.5896 104.416L62.589 103.424L54.6533 95.5332L53.7434 96.4431L61.5896 104.416ZM69.5849 65.8565L69.3611 67.1543L80.3622 69.168C80.4368 68.7951 80.4964 68.4222 80.6083 67.7509L69.5849 65.8565ZM110.173 130.006L110.375 129.111L110.449 128.812L110.464 128.73V128.7L105.019 127.433L99.5748 126.165V126.18L99.5674 126.202L99.545 126.284L99.4704 126.597L99.2616 127.537L110.173 130.006ZM120.212 92.0054L119.153 92.9377L126.641 101.246L127.603 100.404L120.212 92.0054ZM59.9413 147.443C55.2351 144.609 51.9608 142.633 49.5369 140.925C47.1353 139.239 46.0166 138.113 45.3677 137.151L36.097 143.416C37.8571 146.026 40.2587 148.077 43.1003 150.076C45.9196 152.06 49.6115 154.275 54.176 157.027L59.9413 147.443ZM47.8961 102.194C44.0699 105.953 40.9747 108.981 38.685 111.576C36.3729 114.187 34.5083 116.752 33.3896 119.691L43.8387 123.674C44.2564 122.57 45.1066 121.197 47.0682 118.982C49.0372 116.745 51.7968 114.045 55.7348 110.166L47.8961 102.194ZM45.3677 137.151C44.059 135.187 43.2376 132.946 42.9717 130.601C42.7058 128.256 43.003 125.881 43.8387 123.674L33.3821 119.691C31.9098 123.574 31.388 127.753 31.8603 131.879C32.3326 136.005 33.7852 139.966 36.097 143.416L45.3677 137.151ZM59.1283 160.011C63.6928 162.77 67.3698 164.985 70.4351 166.544C73.508 168.11 76.454 169.274 79.5716 169.565L80.6158 158.429C79.5716 158.332 78.1172 157.907 75.5068 156.572C72.8964 155.237 69.6147 153.268 64.9011 150.427L59.1283 160.011ZM97.4119 135.696C96.1664 141.193 95.2863 145.042 94.4211 147.958C93.5485 150.859 92.8325 152.321 92.1389 153.231L101.052 159.988C102.946 157.49 104.132 154.536 105.139 151.157C106.138 147.801 107.115 143.513 108.331 138.173L97.4119 135.696ZM79.5716 169.565C83.6719 169.937 87.7992 169.252 91.5596 167.576C95.32 165.899 98.588 163.287 101.052 159.988L92.1314 153.231C90.8194 155.011 89.072 156.424 87.0567 157.334C85.0415 158.244 82.8261 158.622 80.6232 158.429L79.5716 169.565ZM133.891 26.4019L134.957 27.0508C135.231 27.2248 135.417 27.3491 135.517 27.4237C135.733 27.5729 135.427 27.4014 135.129 26.924L144.556 20.8977C143.885 19.8934 143.033 19.0233 142.043 18.332C141.327 17.8099 140.454 17.2879 139.663 16.818L133.891 26.4019ZM143.81 32.3164C144.258 31.5109 144.75 30.6234 145.115 29.8179C145.511 28.9527 145.943 27.7743 146.01 26.3423L134.83 25.8351C134.86 25.2683 135.032 24.9699 134.927 25.2086L134.622 25.8053L134.025 26.9017L143.81 32.3164ZM135.129 26.924C134.922 26.5997 134.813 26.2194 134.83 25.8351L146.01 26.3423C146.099 24.4208 145.591 22.5191 144.556 20.8977L135.129 26.924ZM127.544 23.0308L128.2 21.8673C128.379 21.5466 128.498 21.3601 128.573 21.2408C128.737 20.9946 128.573 21.3228 128.066 21.6584L121.905 12.3206C120.637 13.1559 119.817 14.2076 119.265 15.0354C118.75 15.8036 118.236 16.7509 117.758 17.616L127.544 23.0308ZM133.846 13.3126C133.003 12.8054 132.071 12.2386 131.235 11.8284C130.102 11.2471 128.865 10.8948 127.596 10.7917L126.925 21.9642C126.328 21.9269 126.015 21.7256 126.276 21.8598C126.395 21.9095 126.606 22.0264 126.91 22.2104C127.23 22.3894 127.588 22.6131 128.066 22.8965L133.846 13.3126ZM128.066 21.6584C127.728 21.8787 127.327 21.9909 126.925 21.9642L127.596 10.7917C125.583 10.6727 123.587 11.2091 121.905 12.3206L128.066 21.6584ZM78.9153 75.4106C79.497 73.3621 79.9793 71.2787 80.3622 69.1606L69.3611 67.1543C69.0448 68.9067 68.6465 70.6343 68.1529 72.3453L78.9153 75.4106ZM110.464 128.73C111.657 123.733 113.522 118.982 115.983 114.612L106.22 109.13C103.226 114.461 100.992 120.192 99.5823 126.142L110.464 128.73ZM115.983 114.612C118.777 109.601 122.378 105.086 126.641 101.246L119.153 92.9377C113.994 97.5962 109.626 103.062 106.22 109.122L115.983 114.612Z" fill="white"/>
<path d="M131.996 69.1157L126.014 71.1145C119.525 73.2774 112.373 72.0021 107.033 67.7284C104.026 65.3178 100.39 63.8206 96.5573 63.4147C92.7247 63.0089 88.8561 63.7113 85.4108 65.4387L79.9961 68.1461" stroke="white" stroke-width="1.5" stroke-linecap="square"/>
</svg>
