<svg width="60" height="60" viewBox="0 0 60 60" fill="none" xmlns="http://www.w3.org/2000/svg">
<path fill-rule="evenodd" clip-rule="evenodd" d="M32.826 55.3109C30.7526 59.2482 24.8505 58.3762 23.6882 53.9609L14.335 18.4276C13.286 14.4424 17.1675 11.1334 20.9365 12.7999L54.5416 27.659C58.7173 29.5053 58.6442 35.4711 54.4284 36.8953L42.3159 40.987C40.7917 41.5019 39.5329 42.575 38.7833 43.9986L32.826 55.3109Z" fill="white"/>
<path fill-rule="evenodd" clip-rule="evenodd" d="M26.7823 53.1473L17.4291 17.614C17.0627 16.2221 18.3256 15.1456 19.6419 15.7276L53.247 30.5866C54.0612 30.9467 54.4405 31.6626 54.4315 32.3972C54.4227 33.1153 54.0657 33.641 53.4037 33.8646L41.2913 37.9563C38.9893 38.734 37.0835 40.3586 35.9514 42.5085L29.9941 53.8208C29.6686 54.439 29.0931 54.7084 28.3826 54.6035C27.6558 54.4961 27.0089 54.0083 26.7823 53.1473Z" fill="#0E3344"/>
</svg>
