<svg width="30" height="30" viewBox="0 0 30 30" fill="none" xmlns="http://www.w3.org/2000/svg">
<rect width="30" height="30" rx="15" fill="#F2FBFF"/>
<path d="M21.3892 20.4894L21.3954 19.8466H21.3892V20.4894ZM22.0854 18.9696L21.5607 19.3411L21.5693 19.3532L21.5784 19.3649L22.0854 18.9696ZM20.4791 15.0979L21.1123 14.9868L21.1109 14.9793L20.4791 15.0979ZM19.1012 8.43728L19.6084 8.04224L19.6071 8.0406L19.1012 8.43728ZM15.0003 6.40073L15.0018 5.75787L14.9982 5.75788L15.0003 6.40073ZM10.8994 8.43728L10.3939 8.04011L10.3923 8.04224L10.8994 8.43728ZM9.52519 15.0979L8.89328 14.9795L8.892 14.9868L9.52519 15.0979ZM7.91891 18.9696L8.42241 19.3693L8.43337 19.3555L8.44355 19.3411L7.91891 18.9696ZM8.61508 20.4894V19.8465L8.60288 19.8467L8.61508 20.4894ZM14.3611 6.40074C14.3611 6.75578 14.6489 7.0436 15.004 7.0436C15.359 7.0436 15.6468 6.75578 15.6468 6.40074H14.3611ZM15.6468 5.14307C15.6468 4.78803 15.359 4.50021 15.004 4.50021C14.6489 4.50021 14.3611 4.78803 14.3611 5.14307H15.6468ZM15.0003 24.0002L15.0017 23.3573H15.0003L15.0003 24.0002ZM21.383 21.1323C21.6805 21.1351 21.9704 21.049 22.2184 20.8871L21.5157 19.8104C21.4771 19.8356 21.4355 19.847 21.3954 19.8466L21.383 21.1323ZM22.2184 20.8871C22.466 20.7255 22.6605 20.4961 22.7828 20.2291L21.6138 19.6937C21.59 19.7457 21.5546 19.785 21.5157 19.8104L22.2184 20.8871ZM22.7828 20.2291C22.905 19.9623 22.9514 19.6665 22.9183 19.3756L21.6408 19.521C21.6477 19.5813 21.6377 19.6415 21.6138 19.6937L22.7828 20.2291ZM22.9183 19.3756C22.8851 19.0845 22.7733 18.8064 22.5923 18.5743L21.5784 19.3649C21.6111 19.4068 21.6339 19.4608 21.6408 19.521L22.9183 19.3756ZM22.61 18.5981C21.8551 17.532 21.3421 16.2967 21.1123 14.9868L19.8459 15.209C20.1081 16.7036 20.6941 18.1173 21.5607 19.3411L22.61 18.5981ZM21.1109 14.9793C21.0121 14.4528 20.9698 13.9089 20.9405 13.3387C20.9119 12.7824 20.8951 12.1756 20.8439 11.593C20.7398 10.4081 20.4848 9.16729 19.6084 8.04224L18.5941 8.83233C19.2479 9.67164 19.4678 10.6212 19.5631 11.7056C19.6117 12.2577 19.6257 12.8052 19.6565 13.4046C19.6865 13.99 19.7322 14.6031 19.8473 15.2165L21.1109 14.9793ZM19.6071 8.0406C19.0512 7.33165 18.3506 6.75781 17.5542 6.36229L16.9824 7.51383C17.6038 7.82246 18.1551 8.27258 18.5954 8.83397L19.6071 8.0406ZM17.5542 6.36229C16.7577 5.96671 15.886 5.7599 15.0018 5.75788L14.9989 7.04359C15.6838 7.04515 16.361 7.20526 16.9824 7.51383L17.5542 6.36229ZM14.9982 5.75788C14.1144 5.76079 13.2432 5.96798 12.4469 6.36341L13.0188 7.51494C13.6402 7.20633 14.3174 7.04584 15.0025 7.04359L14.9982 5.75788ZM12.4469 6.36341C11.6508 6.75876 10.9503 7.33197 10.3939 8.04012L11.4049 8.83445C11.8457 8.27346 12.3972 7.82362 13.0188 7.51494L12.4469 6.36341ZM10.3923 8.04224C9.51579 9.16746 9.26172 10.4075 9.15852 11.5921C9.10779 12.1743 9.09145 12.7812 9.06321 13.3374C9.03425 13.9078 8.99215 14.4521 8.89333 14.9795L10.157 15.2163C10.2722 14.6019 10.3175 13.9883 10.3473 13.4026C10.3777 12.8029 10.3913 12.2556 10.4394 11.7037C10.5338 10.6199 10.7529 9.67148 11.4066 8.83233L10.3923 8.04224ZM8.892 14.9868C8.66218 16.2967 8.14918 17.532 7.39426 18.5981L8.44355 19.3411C9.31017 18.1173 9.89616 16.7036 10.1584 15.209L8.892 14.9868ZM7.41541 18.5699C7.23143 18.8017 7.11719 19.0807 7.08264 19.3732L8.35948 19.524C8.36656 19.464 8.38966 19.4106 8.42241 19.3693L7.41541 18.5699ZM7.08264 19.3732C7.04809 19.6656 7.09416 19.9632 7.21702 20.2314L8.38594 19.696C8.36215 19.644 8.35239 19.584 8.35948 19.524L7.08264 19.3732ZM7.21702 20.2314C7.33996 20.4998 7.53596 20.7301 7.78578 20.8915L8.48359 19.8117C8.44494 19.7867 8.40965 19.7477 8.38594 19.696L7.21702 20.2314ZM7.78578 20.8915C8.03594 21.0532 8.32813 21.1378 8.62727 21.1322L8.60288 19.8467C8.56318 19.8474 8.52189 19.8364 8.48359 19.8117L7.78578 20.8915ZM8.61508 21.1323H21.3892V19.8466H8.61508V21.1323ZM15.6468 6.40074V5.14307H14.3611V6.40074H15.6468ZM16.1922 22.0789C16.1925 22.2509 16.1604 22.4207 16.0983 22.5782L17.2944 23.0497C17.4164 22.7403 17.4785 22.4096 17.4779 22.0764L16.1922 22.0789ZM16.0983 22.5782C16.0362 22.7357 15.9458 22.8769 15.8337 22.9944L16.7638 23.882C16.9926 23.6423 17.1724 23.3592 17.2944 23.0497L16.0983 22.5782ZM15.8337 22.9944C15.7216 23.1118 15.5901 23.2032 15.4477 23.2649L15.9584 24.4448C16.2615 24.3136 16.535 24.1218 16.7638 23.882L15.8337 22.9944ZM15.4477 23.2649C15.3053 23.3265 15.1538 23.3577 15.0017 23.3573L14.999 24.6431C15.329 24.6437 15.6551 24.5761 15.9584 24.4448L15.4477 23.2649ZM15.0003 23.3573C14.8484 23.3573 14.6972 23.326 14.555 23.2642L14.0425 24.4434C14.3452 24.5749 14.6707 24.6431 15.0003 24.6431L15.0003 23.3573ZM14.555 23.2642C14.4128 23.2024 14.2816 23.1109 14.1698 22.9935L13.2388 23.8802C13.4671 24.1199 13.7399 24.3118 14.0425 24.4434L14.555 23.2642ZM14.1698 22.9935C14.0579 22.876 13.9677 22.735 13.9058 22.5776L12.7094 23.0485C12.8311 23.3577 13.0105 23.6405 13.2388 23.8802L14.1698 22.9935ZM13.9058 22.5776C13.8438 22.4203 13.8118 22.2507 13.8121 22.0789L12.5264 22.0764C12.5258 22.4092 12.5877 22.7394 12.7094 23.0485L13.9058 22.5776Z" fill="#093030"/>
</svg>
