<svg width="157" height="201" viewBox="0 0 157 201" fill="none" xmlns="http://www.w3.org/2000/svg">
<path d="M143.832 161.068L143.866 157.568L143.849 157.568H143.832V161.068ZM150.951 145.513L148.093 147.534L148.14 147.6L148.19 147.663L150.951 145.513ZM134.526 105.886L137.973 105.282L137.97 105.261L137.966 105.241L134.526 105.886ZM120.437 37.7158L123.199 35.5662L123.192 35.5573L120.437 37.7158ZM78.5027 16.872L78.5107 13.3721L78.501 13.372L78.4912 13.3721L78.5027 16.872ZM36.5689 37.7158L33.8158 35.5547L33.8113 35.5605L33.8068 35.5662L36.5689 37.7158ZM22.5166 105.886L19.0764 105.242L19.0727 105.262L19.0692 105.282L22.5166 105.886ZM6.09165 145.513L8.83389 147.687L8.89351 147.612L8.94892 147.534L6.09165 145.513ZM13.2103 161.068V157.568H13.1771L13.1439 157.568L13.2103 161.068ZM75.0398 16.8721C75.0398 18.8051 76.6068 20.3721 78.5398 20.3721C80.4728 20.3721 82.0398 18.8051 82.0398 16.8721H75.0398ZM82.0398 4C82.0398 2.067 80.4728 0.5 78.5398 0.5C76.6068 0.5 75.0398 2.067 75.0398 4H82.0398ZM78.5028 197L78.5101 193.5H78.5028L78.5028 197ZM143.798 164.568C146.226 164.591 148.597 163.888 150.632 162.558L146.804 156.698C145.909 157.282 144.891 157.578 143.866 157.568L143.798 164.568ZM150.632 162.558C152.666 161.23 154.273 159.337 155.288 157.12L148.923 154.207C148.444 155.254 147.701 156.112 146.804 156.698L150.632 162.558ZM155.288 157.12C156.302 154.904 156.689 152.441 156.414 150.016L149.458 150.807C149.592 151.978 149.403 153.159 148.923 154.207L155.288 157.12ZM156.414 150.016C156.138 147.591 155.207 145.281 153.712 143.362L148.19 147.663C148.879 148.548 149.325 149.637 149.458 150.807L156.414 150.016ZM153.808 143.491C145.821 132.202 140.401 119.131 137.973 105.282L131.078 106.49C133.682 121.344 139.499 135.386 148.093 147.534L153.808 143.491ZM137.966 105.241C136.916 99.6438 136.476 93.9115 136.174 88.0387C135.877 82.2422 135.712 76.1737 135.194 70.2844C134.151 58.3983 131.627 46.3965 123.199 35.5662L117.674 39.8654C124.892 49.1402 127.226 59.5571 128.221 70.8966C128.724 76.6201 128.874 82.3662 129.183 88.3976C129.489 94.3527 129.948 100.462 131.086 106.531L137.966 105.241ZM123.192 35.5573C117.784 28.6547 110.977 23.0776 103.251 19.2373L100.136 25.5057C106.909 28.8723 112.903 33.7752 117.681 39.8744L123.192 35.5573ZM103.251 19.2373C95.5249 15.3967 87.0759 13.3916 78.5107 13.3721L78.4947 20.372C85.9742 20.3891 93.3635 22.1394 100.136 25.5057L103.251 19.2373ZM78.4912 13.3721C69.9285 13.4003 61.4833 15.4092 53.759 19.2487L56.8747 25.517C63.6469 22.1508 71.035 20.3967 78.5143 20.372L78.4912 13.3721ZM53.759 19.2487C46.0354 23.0878 39.2286 28.6593 33.8158 35.5547L39.322 39.877C44.1058 33.7829 50.1018 28.8836 56.8747 25.517L53.759 19.2487ZM33.8068 35.5662C25.3776 46.3974 22.8634 58.3905 21.8292 70.2724C21.3168 76.1588 21.1564 82.2271 20.8623 88.0244C20.5643 93.8985 20.1259 99.6355 19.0764 105.242L25.9569 106.53C27.0949 100.451 27.551 94.3366 27.8533 88.3791C28.1594 82.3449 28.3048 76.601 28.8028 70.8794C29.7894 59.5454 32.1138 49.1393 39.331 39.8654L33.8068 35.5662ZM19.0692 105.282C16.6416 119.131 11.2211 132.202 3.23438 143.491L8.94892 147.534C17.5432 135.386 23.3604 121.344 25.9641 106.49L19.0692 105.282ZM3.34941 143.338C1.82996 145.254 0.880168 147.569 0.592668 150.005L7.54441 150.825C7.68267 149.654 8.13715 148.566 8.83389 147.687L3.34941 143.338ZM0.592668 150.005C0.305189 152.44 0.689244 154.916 1.70836 157.143L8.07346 154.23C7.59296 153.18 7.40613 151.997 7.54441 150.825L0.592668 150.005ZM1.70836 157.143C2.7279 159.371 4.3475 161.27 6.39724 162.596L10.1989 156.718C9.29893 156.136 8.55353 155.279 8.07346 154.23L1.70836 157.143ZM6.39724 162.596C8.44892 163.923 10.8374 164.613 13.2768 164.567L13.1439 157.568C12.1184 157.588 11.0969 157.299 10.1989 156.718L6.39724 162.596ZM13.2103 164.568H143.832V157.568H13.2103V164.568ZM82.0398 16.8721V4H75.0398V16.8721H82.0398ZM93.7636 177.329C93.7677 179.477 93.3672 181.6 92.5889 183.576L99.102 186.141C100.206 183.339 100.769 180.34 100.764 177.316L93.7636 177.329ZM92.5889 183.576C91.8106 185.553 90.6721 187.337 89.2464 188.833L94.3127 193.663C96.3731 191.502 97.998 188.945 99.102 186.141L92.5889 183.576ZM89.2464 188.833C87.8209 190.328 86.1373 191.503 84.2967 192.301L87.0793 198.724C89.7954 197.547 92.2519 195.825 94.3127 193.663L89.2464 188.833ZM84.2967 192.301C82.4563 193.098 80.4904 193.504 78.5101 193.5L78.4955 200.5C81.4454 200.506 84.3629 199.901 87.0793 198.724L84.2967 192.301ZM78.5028 193.5C76.5249 193.5 74.5621 193.091 72.7252 192.292L69.9326 198.711C72.6439 199.89 75.5568 200.5 78.5028 200.5L78.5028 193.5ZM72.7252 192.292C70.8878 191.493 69.2076 190.316 67.7854 188.822L62.7143 193.647C64.7704 195.808 67.2218 197.531 69.9326 198.711L72.7252 192.292ZM67.7854 188.822C66.3629 187.327 65.2272 185.543 64.4508 183.569L57.9365 186.131C59.0377 188.931 60.6585 191.486 62.7143 193.647L67.7854 188.822ZM64.4508 183.569C63.6744 181.595 63.275 179.474 63.2791 177.329L56.2791 177.316C56.2734 180.336 56.8353 183.331 57.9365 186.131L64.4508 183.569Z" fill="#F2FBFF"/>
</svg>
