<svg width="35" height="35" viewBox="0 0 35 35" fill="none" xmlns="http://www.w3.org/2000/svg">
<path d="M30.2886 5.76929H4.32707C3.53051 5.76929 2.88477 6.41503 2.88477 7.21159V27.4039C2.88477 28.2005 3.53051 28.8462 4.32707 28.8462H30.2886C31.0852 28.8462 31.7309 28.2005 31.7309 27.4039V7.21159C31.7309 6.41503 31.0852 5.76929 30.2886 5.76929Z" stroke="#0E3344" stroke-width="2" stroke-linecap="round" stroke-linejoin="round"/>
<path d="M2.88477 7.21159C2.88477 6.82907 3.03672 6.46221 3.30721 6.19173C3.57769 5.92124 3.94455 5.76929 4.32707 5.76929H30.2886C30.6711 5.76929 31.038 5.92124 31.3085 6.19173C31.579 6.46221 31.7309 6.82907 31.7309 7.21159V11.5385H2.88477V7.21159Z" stroke="#0E3344" stroke-width="2" stroke-linecap="round" stroke-linejoin="round"/>
<path d="M18.0292 16.5867L16.5869 24.5194" stroke="#0E3344" stroke-width="2" stroke-linecap="round"/>
<path d="M22.3557 16.5867L26.6826 20.1924L22.3557 24.5194M12.2595 16.5867L7.93262 20.1924L12.2595 24.5194" stroke="#0E3344" stroke-width="2" stroke-linecap="round" stroke-linejoin="round"/>
</svg>
