<svg width="130" height="128" viewBox="0 0 130 128" fill="none" xmlns="http://www.w3.org/2000/svg">
<ellipse cx="65" cy="64" rx="65" ry="64" fill="#00B1FF"/>
<path fill-rule="evenodd" clip-rule="evenodd" d="M64.4998 36.7002C66.2768 36.7002 67.9809 37.4061 69.2374 38.6626C70.4939 39.9191 71.1998 41.6232 71.1998 43.4002V66.8502C71.1998 68.6271 70.4939 70.3313 69.2374 71.5878C67.9809 72.8443 66.2768 73.5502 64.4998 73.5502C62.7229 73.5502 61.0187 72.8443 59.7622 71.5878C58.5057 70.3313 57.7998 68.6271 57.7998 66.8502V43.4002C57.7998 41.6232 58.5057 39.9191 59.7622 38.6626C61.0187 37.4061 62.7229 36.7002 64.4998 36.7002Z" fill="white"/>
<path d="M71.1998 83.6004C71.1998 85.3773 70.4939 87.0815 69.2374 88.338C67.9809 89.5945 66.2768 90.3004 64.4998 90.3004C62.7229 90.3004 61.0187 89.5945 59.7622 88.338C58.5057 87.0815 57.7998 85.3773 57.7998 83.6004C57.7998 81.8234 58.5057 80.1193 59.7622 78.8628C61.0187 77.6063 62.7229 76.9004 64.4998 76.9004C66.2768 76.9004 67.9809 77.6063 69.2374 78.8628C70.4939 80.1193 71.1998 81.8234 71.1998 83.6004Z" fill="white"/>
</svg>
