<svg width="35" height="35" viewBox="0 0 35 35" fill="none" xmlns="http://www.w3.org/2000/svg">
<path d="M16.0415 27.7084H5.83317C5.05962 27.7084 4.31776 27.4011 3.77078 26.8541C3.22379 26.3072 2.9165 25.5653 2.9165 24.7917V10.2084C2.9165 9.43487 3.22379 8.693 3.77078 8.14602C4.31776 7.59904 5.05962 7.29175 5.83317 7.29175H13.1248M13.1248 7.29175L8.74984 2.91675M13.1248 7.29175L8.74984 11.6667M18.9582 7.29175H29.1665C29.9401 7.29175 30.6819 7.59904 31.2289 8.14602C31.7759 8.693 32.0832 9.43487 32.0832 10.2084V24.7917C32.0832 25.5653 31.7759 26.3072 31.2289 26.8541C30.6819 27.4011 29.9401 27.7084 29.1665 27.7084H21.8748M21.8748 27.7084L26.2498 32.0834M21.8748 27.7084L26.2498 23.3334M21.8748 17.5001C21.8748 19.9163 19.9161 21.8751 17.4998 21.8751C15.0836 21.8751 13.1248 19.9163 13.1248 17.5001C13.1248 15.0838 15.0836 13.1251 17.4998 13.1251C19.9161 13.1251 21.8748 15.0838 21.8748 17.5001Z" stroke="#0E3344" stroke-width="2" stroke-linecap="round" stroke-linejoin="round"/>
</svg>
